<svg width="32" height="32" viewBox="0 0 32 32" fill="none" xmlns="http://www.w3.org/2000/svg">
<g id="uim:process">
<path id="Vector" d="M11.5003 11.3332H5.50033C5.1467 11.3332 4.80756 11.1927 4.55752 10.9426C4.30747 10.6926 4.16699 10.3535 4.16699 9.99984V3.99984C4.16699 3.64622 4.30747 3.30708 4.55752 3.05703C4.80756 2.80698 5.1467 2.6665 5.50033 2.6665C5.85395 2.6665 6.19309 2.80698 6.44313 3.05703C6.69318 3.30708 6.83366 3.64622 6.83366 3.99984V8.6665H11.5003C11.8539 8.6665 12.1931 8.80698 12.4431 9.05703C12.6932 9.30708 12.8337 9.64622 12.8337 9.99984C12.8337 10.3535 12.6932 10.6926 12.4431 10.9426C12.1931 11.1927 11.8539 11.3332 11.5003 11.3332Z" fill="#F0E714"/>
<path id="Vector_2" d="M28 17.3333C27.6464 17.3333 27.3073 17.1928 27.0572 16.9428C26.8072 16.6927 26.6667 16.3536 26.6667 16C26.6677 13.6527 25.8939 11.3707 24.4655 9.50811C23.037 7.64553 21.0337 6.3065 18.7665 5.6988C16.4992 5.09111 14.0948 5.24874 11.9263 6.14723C9.75774 7.04573 7.94641 8.63484 6.77335 10.668C6.59618 10.974 6.30469 11.1972 5.963 11.2883C5.62131 11.3795 5.25741 11.3311 4.95135 11.154C4.64529 10.9768 4.42214 10.6853 4.331 10.3436C4.23986 10.0019 4.28818 9.63803 4.46535 9.33197C5.93235 6.79096 8.19693 4.8051 10.9078 3.68249C13.6186 2.55988 16.6241 2.36327 19.4581 3.12316C22.2921 3.88305 24.7961 5.55696 26.5816 7.88521C28.3672 10.2135 29.3344 13.0659 29.3333 16C29.3333 16.3536 29.1929 16.6927 28.9428 16.9428C28.6928 17.1928 28.3536 17.3333 28 17.3333ZM26.5 29.3333C26.1464 29.3333 25.8073 29.1928 25.5572 28.9428C25.3072 28.6927 25.1667 28.3536 25.1667 28V23.3333H20.5C20.1464 23.3333 19.8073 23.1928 19.5572 22.9428C19.3072 22.6927 19.1667 22.3536 19.1667 22C19.1667 21.6464 19.3072 21.3072 19.5572 21.0572C19.8073 20.8071 20.1464 20.6666 20.5 20.6666H26.5C26.8536 20.6666 27.1928 20.8071 27.4428 21.0572C27.6929 21.3072 27.8333 21.6464 27.8333 22V28C27.8333 28.3536 27.6929 28.6927 27.4428 28.9428C27.1928 29.1928 26.8536 29.3333 26.5 29.3333Z" fill="#F0E714"/>
<path id="Vector_3" d="M16.0003 29.3332C12.4654 29.3289 9.07648 27.9228 6.57691 25.4233C4.07734 22.9237 2.67123 19.5348 2.66699 15.9998C2.66699 15.6462 2.80747 15.3071 3.05752 15.057C3.30756 14.807 3.6467 14.6665 4.00033 14.6665C4.35395 14.6665 4.69309 14.807 4.94313 15.057C5.19318 15.3071 5.33366 15.6462 5.33366 15.9998C5.33264 18.3471 6.1064 20.6291 7.53487 22.4917C8.96333 24.3543 10.9666 25.6933 13.2339 26.301C15.5011 26.9087 17.9056 26.7511 20.0741 25.8526C22.2426 24.9541 24.0539 23.365 25.227 21.3318C25.3147 21.1803 25.4314 21.0475 25.5705 20.9411C25.7095 20.8346 25.8682 20.7566 26.0373 20.7115C26.2065 20.6664 26.3829 20.655 26.5565 20.678C26.7301 20.7011 26.8974 20.7581 27.049 20.8458C27.2005 20.9336 27.3333 21.0503 27.4398 21.1893C27.5462 21.3284 27.6242 21.487 27.6693 21.6562C27.7145 21.8254 27.7258 22.0018 27.7028 22.1754C27.6797 22.349 27.6227 22.5163 27.535 22.6678C26.3623 24.6898 24.6803 26.3692 22.6565 27.5387C20.6327 28.7081 18.3377 29.3268 16.0003 29.3332Z" fill="#F0E714"/>
</g>
</svg>
