<svg width="32" height="32" viewBox="0 0 32 32" fill="none" xmlns="http://www.w3.org/2000/svg">
<g id="ant-design:team-outlined">
<path id="Vector" d="M25.7563 21.8719C24.9741 21.0891 24.0601 20.4501 23.0563 19.9844C24.4719 18.8375 25.375 17.0875 25.375 15.125C25.375 11.6625 22.4875 8.82188 19.025 8.875C15.6156 8.92813 12.8688 11.7063 12.8688 15.125C12.8688 17.0875 13.775 18.8375 15.1875 19.9844C14.1835 20.4498 13.2695 21.0888 12.4875 21.8719C10.7813 23.5813 9.81252 25.8375 9.75002 28.2437C9.74918 28.2771 9.75503 28.3103 9.76722 28.3413C9.77941 28.3724 9.79769 28.4007 9.82099 28.4246C9.84429 28.4485 9.87213 28.4674 9.90288 28.4804C9.93363 28.4933 9.96665 28.5 10 28.5H11.75C11.8844 28.5 11.9969 28.3937 12 28.2594C12.0594 26.4469 12.7938 24.75 14.0844 23.4625C14.7448 22.7986 15.5304 22.2722 16.3956 21.9139C17.2608 21.5555 18.1885 21.3724 19.125 21.375C21.0281 21.375 22.8188 22.1156 24.1656 23.4625C25.4531 24.75 26.1875 26.4469 26.25 28.2594C26.2531 28.3937 26.3656 28.5 26.5 28.5H28.25C28.2834 28.5 28.3164 28.4933 28.3472 28.4804C28.3779 28.4674 28.4057 28.4485 28.429 28.4246C28.4523 28.4007 28.4706 28.3724 28.4828 28.3413C28.495 28.3103 28.5009 28.2771 28.5 28.2437C28.4375 25.8375 27.4688 23.5813 25.7563 21.8719ZM19.125 19.125C18.0563 19.125 17.05 18.7094 16.2969 17.9531C15.9189 17.5781 15.6204 17.1309 15.419 16.638C15.2177 16.1451 15.1177 15.6167 15.125 15.0844C15.1344 14.0594 15.5438 13.0688 16.2594 12.3344C17.0094 11.5656 18.0125 11.1375 19.0844 11.125C20.1438 11.1156 21.1719 11.5281 21.9281 12.2688C22.7031 13.0281 23.1281 14.0438 23.1281 15.125C23.1281 16.1938 22.7125 17.1969 21.9563 17.9531C21.5852 18.3259 21.144 18.6214 20.658 18.8226C20.172 19.0237 19.651 19.1265 19.125 19.125ZM11.2969 15.95C11.2688 15.6781 11.2531 15.4031 11.2531 15.125C11.2531 14.6281 11.3 14.1438 11.3875 13.6719C11.4094 13.5594 11.35 13.4438 11.2469 13.3969C10.8219 13.2063 10.4313 12.9438 10.0938 12.6125C9.69608 12.2269 9.38314 11.7626 9.17491 11.2493C8.96668 10.736 8.86774 10.1849 8.88439 9.63125C8.91252 8.62813 9.31564 7.675 10.0188 6.95625C10.7906 6.16563 11.8281 5.73438 12.9313 5.74688C13.9281 5.75625 14.8906 6.14063 15.6188 6.82188C15.8656 7.05313 16.0781 7.30938 16.2563 7.58438C16.3188 7.68125 16.4406 7.72188 16.5469 7.68438C17.0969 7.49375 17.6781 7.35938 18.275 7.29688C18.45 7.27813 18.55 7.09063 18.4719 6.93438C17.4563 4.925 15.3813 3.5375 12.9813 3.5C9.51564 3.44688 6.62814 6.2875 6.62814 9.74688C6.62814 11.7094 7.53127 13.4594 8.94689 14.6063C7.95314 15.0656 7.03752 15.7 6.24377 16.4938C4.53127 18.2031 3.56252 20.4594 3.50002 22.8687C3.49918 22.9021 3.50503 22.9353 3.51722 22.9663C3.52941 22.9974 3.5477 23.0257 3.57099 23.0496C3.59429 23.0735 3.62213 23.0924 3.65288 23.1054C3.68363 23.1183 3.71665 23.125 3.75002 23.125H5.50314C5.63752 23.125 5.75002 23.0187 5.75314 22.8844C5.81252 21.0719 6.54689 19.375 7.83752 18.0875C8.75627 17.1688 9.88127 16.5312 11.1094 16.2219C11.2313 16.1906 11.3125 16.075 11.2969 15.95Z" fill="#F0E714"/>
</g>
</svg>
