<svg width="32" height="32" viewBox="0 0 32 32" fill="none" xmlns="http://www.w3.org/2000/svg">
<g id="bx:support">
<path id="Vector" d="M16.0003 2.6665C8.64833 2.6665 2.66699 8.64784 2.66699 15.9998V21.5238C2.66699 22.8892 3.86299 23.9998 5.33366 23.9998H6.66699C7.02061 23.9998 7.35975 23.8594 7.6098 23.6093C7.85985 23.3593 8.00033 23.0201 8.00033 22.6665V15.8092C8.00033 15.4555 7.85985 15.1164 7.6098 14.8664C7.35975 14.6163 7.02061 14.4758 6.66699 14.4758H5.45633C6.19766 9.31584 10.6377 5.33317 16.0003 5.33317C21.363 5.33317 25.803 9.31584 26.5443 14.4758H25.3337C24.98 14.4758 24.6409 14.6163 24.3908 14.8664C24.1408 15.1164 24.0003 15.4555 24.0003 15.8092V23.9998C24.0003 25.4705 22.8043 26.6665 21.3337 26.6665H18.667V25.3332H13.3337V29.3332H21.3337C24.275 29.3332 26.667 26.9412 26.667 23.9998C28.1377 23.9998 29.3337 22.8892 29.3337 21.5238V15.9998C29.3337 8.64784 23.3523 2.6665 16.0003 2.6665Z" fill="#F0E714"/>
</g>
</svg>
