<svg width="32" height="36" viewBox="0 0 32 36" fill="none" xmlns="http://www.w3.org/2000/svg">
<path fill-rule="evenodd" clip-rule="evenodd" d="M15.5373 0.0319557C15.3889 0.0654208 15.1807 0.12865 15.0747 0.172447C14.9687 0.216322 11.759 2.00963 7.94217 4.15764C3.07077 6.89908 0.906101 8.15741 0.679171 8.37971C0.501436 8.55383 0.275894 8.87329 0.177966 9.0895L0 9.48267V17.6947V25.9068L0.20827 26.3309C0.322853 26.5641 0.548395 26.8835 0.709475 27.0406C0.894998 27.2214 3.57097 28.7712 8.00493 31.2657C13.3515 34.2736 15.1248 35.236 15.5037 35.3354C16.3831 35.566 16.2177 35.6451 23.9633 31.2886C28.1447 28.9368 31.0506 27.2562 31.2467 27.0762C31.426 26.9115 31.6689 26.581 31.7864 26.3418L32 25.9068V17.6947V9.48267L31.8182 9.08063C31.7182 8.85956 31.4754 8.52884 31.2784 8.34571C31.0328 8.11724 28.743 6.79043 23.9807 4.11693C20.1639 1.97416 16.9508 0.182703 16.8407 0.135975C16.558 0.0159171 15.8567 -0.0399864 15.5373 0.0319557ZM22.0771 5.86922C25.3718 7.71982 28.1083 9.27263 28.1581 9.31982C28.2259 9.38382 26.734 10.2655 22.2719 12.7983C18.9846 14.6644 16.2449 16.2025 16.1838 16.2165C16.0524 16.2465 3.80607 9.43757 3.83537 9.3509C3.86275 9.26993 15.8587 2.51492 15.9855 2.50906C16.0412 2.50644 18.7824 4.01854 22.0771 5.86922ZM9.1759 15.2249C12.3142 16.9735 14.8871 18.4094 14.8934 18.4157C14.9236 18.446 14.7719 32.134 14.7411 32.1649C14.7215 32.1844 11.9433 30.6467 8.56729 28.7478L2.42892 25.2951V18.3759V11.4567L2.9494 11.7511C3.2357 11.9131 6.03759 13.4762 9.1759 15.2249ZM29.5711 18.4128V25.2994L23.4345 28.7516C20.0593 30.6503 17.2856 32.1915 17.2705 32.1765C17.2236 32.1297 17.3696 18.4584 17.4176 18.4105C17.4889 18.3391 29.4485 11.5375 29.5133 11.5314C29.5451 11.5285 29.5711 14.625 29.5711 18.4128Z" fill="#F0E714"/>
</svg>
