<svg width="32" height="33" viewBox="0 0 32 33" fill="none" xmlns="http://www.w3.org/2000/svg">
<path fill-rule="evenodd" clip-rule="evenodd" d="M14.3464 0.0837633C7.97421 0.746383 2.51294 5.26474 0.68162 11.3892C-2.20743 21.0513 4.40914 30.9237 14.4507 31.9341C19.7113 32.4635 25.0164 30.2574 28.3792 26.142C33.2069 20.2338 33.2069 11.7798 28.3792 5.87164C25 1.73616 19.6552 -0.468266 14.3464 0.0837633ZM16.7817 3.08333C18.041 3.72579 19.3015 5.93552 20.0492 8.8111C20.1922 9.36136 20.3096 9.82027 20.31 9.83081C20.3104 9.84136 18.3706 9.85005 15.9995 9.85005H11.6883L11.7357 9.63842C12.1741 7.67965 12.9385 5.72873 13.7181 4.57834C14.748 3.05863 15.7627 2.56347 16.7817 3.08333ZM11.2928 3.81706C10.555 5.07073 9.99831 6.52256 9.49608 8.50327L9.16431 9.81157L6.54492 9.83181L3.92561 9.85206L4.17665 9.40854C5.52275 7.03011 7.52122 5.12914 9.97646 3.89171C10.5142 3.62074 11.4605 3.21039 11.6678 3.15837C11.676 3.15629 11.5073 3.45266 11.2928 3.81706ZM21.7769 3.75203C23.8339 4.68601 25.9512 6.5241 27.2941 8.54175C27.6497 9.07607 28.0066 9.7106 28.0066 9.8085C28.0066 9.83135 26.8292 9.85005 25.39 9.85005C22.9202 9.85005 22.7734 9.84228 22.7734 9.7113C22.7734 9.63503 22.6544 9.08962 22.5091 8.49919C22.0625 6.68633 21.4315 5.04441 20.7108 3.81991L20.3226 3.16044L20.7977 3.34176C21.0589 3.4415 21.4996 3.6262 21.7769 3.75203ZM8.74172 12.8707C8.64737 13.5951 8.64737 18.4185 8.74172 19.1429L8.81437 19.7008H5.90269H2.99101L2.91606 19.5036C2.5819 18.6247 2.37634 16.0617 2.52764 14.66C2.6153 13.847 2.86257 12.5415 2.95815 12.3869C2.98617 12.3415 4.12917 12.3128 5.90916 12.3128H8.81437L8.74172 12.8707ZM20.7307 12.4859C20.8093 12.8435 20.9264 14.9602 20.9262 16.0212C20.926 17.0824 20.8211 18.9326 20.7317 19.4507L20.6885 19.7008H15.999H11.3094L11.2713 19.5277C11.1923 19.1687 11.0756 17.0518 11.0764 15.9924C11.0771 14.9084 11.192 12.8248 11.2697 12.4859L11.3094 12.3128H16.001H20.6926L20.7307 12.4859ZM29.1416 12.736C29.428 13.8826 29.499 14.5329 29.499 16.0068C29.499 17.4807 29.428 18.131 29.1416 19.2776L29.0456 19.6624L26.1165 19.6825L23.1874 19.7026L23.2602 19.1438C23.3546 18.4182 23.3546 13.5954 23.2602 12.8698L23.1874 12.311L26.1165 12.3311L29.0456 12.3512L29.1416 12.736ZM9.49608 23.5103C9.99747 25.4876 10.5551 26.9431 11.2891 28.1901L11.6751 28.846L11.1637 28.6539C8.3089 27.5812 5.72877 25.3475 4.17665 22.6051L3.92561 22.1615L6.54492 22.1818L9.16431 22.202L9.49608 23.5103ZM20.2826 22.2982C20.2615 22.3723 20.1352 22.8485 20.002 23.3564C19.2717 26.1416 18.0298 28.2834 16.7623 28.9439C16.3048 29.1822 15.6972 29.1822 15.2397 28.9439C13.9625 28.2784 12.6591 26.005 11.9541 23.2127C11.8458 22.7838 11.74 22.3723 11.719 22.2982C11.683 22.1711 11.9234 22.1635 16.001 22.1635C20.0787 22.1635 20.3189 22.1711 20.2826 22.2982ZM28.0066 22.2051C28.0066 22.303 27.6497 22.9375 27.2941 23.4719C25.7319 25.819 23.3836 27.6994 20.7977 28.6741L20.3226 28.8532L20.7108 28.1937C21.4315 26.9692 22.0625 25.3273 22.5091 23.5144C22.6544 22.924 22.7734 22.3786 22.7734 22.3023C22.7734 22.1713 22.9202 22.1635 25.39 22.1635C26.8292 22.1635 28.0066 22.1822 28.0066 22.2051Z" fill="#F0E714"/>
</svg>
