<svg width="32" height="32" viewBox="0 0 32 32" fill="none" xmlns="http://www.w3.org/2000/svg">
<path fill-rule="evenodd" clip-rule="evenodd" d="M5.86838 2.34859C2.98716 3.6355 0.541275 4.75383 0.433063 4.8339C0.324779 4.9139 0.183068 5.0914 0.11814 5.22825C0.00964262 5.45696 0 6.5188 0 18.2768C0 29.9941 0.0099283 31.0972 0.117212 31.3233C0.278994 31.6644 0.650987 31.9298 1.02641 31.9721C1.31326 32.0044 1.73161 31.8322 6.3618 29.7744L11.386 27.5417L15.8358 29.7662C19.2383 31.4672 20.347 31.9908 20.5467 31.9908C20.7345 31.9908 22.2821 31.3364 26.0643 29.6578C28.9554 28.3746 31.4207 27.2515 31.5429 27.1619C32.0363 26.8 31.9994 27.8877 31.9994 13.7054C31.9994 1.9881 31.9894 0.884981 31.8822 0.658914C31.7204 0.317849 31.3484 0.0524256 30.973 0.0101407C30.6861 -0.0222158 30.2678 0.150066 25.6376 2.20781L20.6134 4.44055L16.1636 2.21603C12.2999 0.284421 11.6738 -0.00743029 11.4103 0.000140987C11.1774 0.00678371 9.89088 0.551916 5.86838 2.34859ZM10.2855 14.2296V25.5391L6.41059 27.2606C4.27935 28.2074 2.47945 29.0036 2.41067 29.0298C2.29196 29.0751 2.28567 28.5092 2.28567 17.7603V6.44301L6.23202 4.68519C8.40248 3.71842 10.2025 2.92573 10.2319 2.92365C10.2614 2.92165 10.2855 8.00927 10.2855 14.2296ZM29.7137 14.2296V25.5391L25.8388 27.2606C23.7076 28.2074 21.9076 29.0036 21.8389 29.0298C21.7201 29.0751 21.7139 28.5092 21.7139 17.7603V6.44301L25.6602 4.68519C27.8307 3.71842 29.6306 2.92573 29.6601 2.92365C29.6896 2.92165 29.7137 8.00927 29.7137 14.2296ZM19.4282 17.7057V28.9911L15.9997 27.2766L12.5712 25.5621V14.2766V2.99108L15.9997 4.70562L19.4282 6.42016V17.7057Z" fill="#F0E714"/>
</svg>
