<svg width="32" height="32" viewBox="0 0 32 32" fill="none" xmlns="http://www.w3.org/2000/svg">
<path fill-rule="evenodd" clip-rule="evenodd" d="M11.23 0.116943C10.9549 0.17603 10.4368 0.369062 10.0785 0.545938C7.78623 1.67774 6.74483 4.58608 7.8037 6.89893C7.91087 7.13312 7.99865 7.33793 7.99865 7.35401C7.99865 7.37001 7.19367 7.38378 6.20989 7.38447C4.11854 7.38609 3.66793 7.45695 2.69499 7.93718C1.08334 8.7327 0 10.4893 0 12.3071C0 13.4333 0.49116 14.7276 1.23559 15.5628L1.62527 16L1.22959 16.4424C-0.481466 18.3555 -0.382141 21.3231 1.4544 23.1597C2.89664 24.6019 5.09763 25.021 6.89893 24.1963C7.13312 24.0891 7.33793 24.0013 7.35401 24.0013C7.37001 24.0013 7.38378 24.8062 7.38447 25.7901C7.38609 27.8815 7.45695 28.3321 7.93718 29.305C8.7327 30.9167 10.4893 32 12.3071 32C13.446 32 14.7229 31.517 15.5576 30.7704L16 30.3747L16.4424 30.7704C18.3555 32.4815 21.3231 32.3821 23.1597 30.5456C24.6019 29.1034 25.021 26.9024 24.1963 25.1011C24.0891 24.8669 24.0013 24.6621 24.0013 24.646C24.0013 24.63 24.8062 24.6162 25.7901 24.6155C27.8813 24.6139 28.3462 24.5415 29.3073 24.0677C30.9101 23.2775 32 21.5068 32 19.6929C32 18.5667 31.5088 17.2724 30.7644 16.4372L30.3747 16L30.7704 15.5576C32.4815 13.6445 32.3821 10.6769 30.5456 8.84026C29.1034 7.39809 26.9024 6.97902 25.1011 7.8037C24.8669 7.91087 24.6621 7.99865 24.646 7.99865C24.63 7.99865 24.6162 7.19367 24.6155 6.20989C24.6139 4.11854 24.5431 3.66793 24.0628 2.69499C23.2629 1.07433 21.5209 0 19.6929 0C18.5667 0 17.2724 0.49116 16.4372 1.23559L16 1.62527L15.5576 1.22959C14.4322 0.222961 12.75 -0.209497 11.23 0.116943ZM13.3518 2.69299C13.8304 2.92472 14.3023 3.39711 14.5422 3.88458C14.7201 4.24602 14.7319 4.35396 14.7556 5.83098L14.7805 7.39463L13.2168 7.3697C11.7398 7.34608 11.6319 7.33423 11.2704 7.15636C9.8999 6.48194 9.43828 4.82435 10.2694 3.56144C10.5569 3.1246 11.0779 2.72438 11.5682 2.56374C12.0382 2.40979 12.895 2.47188 13.3518 2.69299ZM20.4446 2.58351C21.0316 2.77308 21.5232 3.18969 21.8411 3.76717L22.1164 4.26726V8.61414V12.961L21.8535 13.4458C21.5612 13.985 21.3207 14.2175 20.7398 14.5219C20.3578 14.7222 20.3034 14.7286 18.7889 14.7553L17.231 14.7827V9.66232C17.231 5.13909 17.2455 4.49899 17.3559 4.17378C17.7995 2.86694 19.1575 2.16775 20.4446 2.58351ZM13.0587 9.96937C13.6458 10.1589 14.1373 10.5755 14.4552 11.153L14.7306 11.6531L14.7566 13.2136L14.7828 14.7741L9.52499 14.7523L4.26726 14.7306L3.88258 14.5401C1.88432 13.5504 2.05211 10.7082 4.15224 9.97345C4.44944 9.86951 5.07293 9.85196 8.58606 9.84881C12.1455 9.84558 12.7238 9.8612 13.0587 9.96937ZM28.1235 10.0788C28.6021 10.3106 29.074 10.783 29.3139 11.2704C29.5844 11.82 29.5844 12.7942 29.3139 13.3437C29.0738 13.8318 28.6035 14.3021 28.1154 14.5422C27.7541 14.72 27.6457 14.7319 26.1748 14.7555L24.6168 14.7803V13.3636C24.6168 12.3891 24.6496 11.8381 24.7217 11.5983C24.943 10.863 25.6023 10.1913 26.3399 9.9496C26.8099 9.79565 27.6667 9.85773 28.1235 10.0788ZM7.36962 18.7889C7.34608 20.2599 7.33416 20.3683 7.15636 20.7296C6.91624 21.2176 6.44593 21.688 5.95785 21.9281C5.64287 22.0831 5.45953 22.1164 4.92121 22.1164C4.38289 22.1164 4.19955 22.0831 3.88458 21.9281C2.51404 21.2537 2.05242 19.5961 2.88356 18.3332C3.17323 17.893 3.69808 17.4916 4.18232 17.3401C4.38951 17.2752 4.99599 17.2395 5.94631 17.2361L7.39447 17.231L7.36962 18.7889ZM14.7523 22.4819L14.7306 27.7327L14.4677 28.2175C14.1748 28.7578 13.9331 28.9909 13.3539 29.2919C13.0183 29.4663 12.8657 29.4959 12.3071 29.4953C11.773 29.4946 11.5826 29.4603 11.2684 29.3079C10.7805 29.0712 10.3183 28.6104 10.0741 28.1174L9.88359 27.7327L9.86181 23.5397C9.84258 19.8482 9.85489 19.3012 9.96429 18.9667C10.2164 18.1959 10.7737 17.6267 11.5381 17.3593C11.8034 17.2664 12.2203 17.2374 13.329 17.2347L14.7741 17.231L14.7523 22.4819ZM27.8305 17.3552C28.4177 17.5449 28.909 17.9614 29.2267 18.5389C29.4825 19.0039 29.5016 19.0848 29.4989 19.6929C29.4965 20.2472 29.4649 20.4067 29.2919 20.7398C28.9909 21.319 28.7578 21.5606 28.2175 21.8535L27.7327 22.1164H23.3859H19.039L18.6543 21.9259C18.1634 21.6828 17.7025 21.2216 17.4606 20.7316C17.2808 20.3675 17.2692 20.2635 17.2451 18.7889L17.2197 17.231H22.3327C26.8289 17.231 27.4922 17.246 27.8305 17.3552ZM20.7296 24.8436C21.2176 25.0838 21.688 25.5541 21.9281 26.0422C22.0831 26.3571 22.1164 26.5405 22.1164 27.0788C22.1164 27.8498 21.9365 28.3014 21.426 28.8118C20.9155 29.3223 20.4639 29.5023 19.6929 29.5023C19.1546 29.5023 18.9713 29.469 18.6563 29.3139C18.1682 29.0738 17.6979 28.6035 17.4578 28.1154C17.2799 27.754 17.2681 27.646 17.2444 26.169L17.2195 24.6054L18.7832 24.6303C20.2602 24.6539 20.3681 24.6658 20.7296 24.8436Z" fill="#F0E714"/>
</svg>
