<svg width="32" height="32" viewBox="0 0 32 32" fill="none" xmlns="http://www.w3.org/2000/svg">
<path fill-rule="evenodd" clip-rule="evenodd" d="M25.4676 0.0296443C25.4042 0.0567139 22.9025 1.44003 19.9083 3.10381L14.4644 6.12884H8.86978C4.09422 6.12884 3.209 6.14607 2.8231 6.24658C1.49669 6.5921 0.475044 7.61706 0.127676 8.95062C-0.0443543 9.6109 -0.0417399 17.422 0.130675 18.0839C0.476197 19.4103 1.50115 20.432 2.83471 20.7793C3.11618 20.8527 3.63719 20.8941 4.2784 20.8941H5.28159L7.03273 26.1495C8.89093 31.726 8.87147 31.6793 9.41924 31.8862C9.76484 32.0168 14.9461 31.9963 15.2649 31.8631C15.5907 31.7269 15.9127 31.34 15.9746 31.0101C16.0218 30.7587 14.8693 23.4903 14.6914 22.9166C14.5274 22.3881 13.8794 22.0452 13.2631 22.1608C12.8874 22.2313 12.4246 22.6919 12.3545 23.0652C12.3183 23.2582 12.4591 24.2849 12.8096 26.3848C13.0887 28.0568 13.317 29.4434 13.317 29.466C13.317 29.4886 12.7372 29.5071 12.0285 29.5071H10.74L9.30497 25.2006L7.86997 20.8941H11.1672H14.4644L19.9468 23.9487C25.3469 26.9575 25.4357 27.0034 25.8657 27.0056C26.3378 27.008 26.5858 26.8798 26.8855 26.4784C27.0392 26.2728 27.0448 26.1615 27.0666 22.9072L27.0891 19.5483L27.7587 19.3392C29.8818 18.6764 31.4579 16.8709 31.8956 14.6006C32.4667 11.6372 30.6404 8.58341 27.7587 7.68373L27.0891 7.47463L27.0666 4.11569C27.0448 0.861419 27.0392 0.750142 26.8855 0.544505C26.6221 0.191754 26.3485 0.0337203 25.9539 0.0063431C25.7499 -0.00788383 25.531 0.0026516 25.4676 0.0296443ZM24.6217 13.5017V23.7199L20.3171 21.3278L16.0124 18.9358L15.9913 14.7681C15.9706 10.6955 15.9666 10.5955 15.8116 10.388C15.5103 9.9845 15.2645 9.85861 14.7782 9.85861C14.2919 9.85861 14.0461 9.9845 13.7448 10.388C13.5901 10.595 13.5857 10.6981 13.5649 14.5183L13.5437 18.4364L8.39883 18.4156C3.33904 18.3951 3.25053 18.3921 3.04174 18.2362C2.92492 18.149 2.75804 17.9821 2.67084 17.8653C2.51526 17.657 2.51226 17.5744 2.51226 13.5115C2.51226 9.44856 2.51526 9.36597 2.67084 9.15764C2.75804 9.04083 2.92492 8.87395 3.04174 8.78674C3.25129 8.63025 3.33189 8.62786 9.18915 8.60625L15.1242 8.58441L19.8537 5.94282C22.455 4.48998 24.5919 3.29722 24.6025 3.29238C24.613 3.28746 24.6217 7.88168 24.6217 13.5017ZM27.5616 10.252C27.78 10.3627 28.1554 10.6409 28.3959 10.8703C29.9109 12.3153 29.9109 14.7076 28.3959 16.1526C28.0374 16.4945 27.296 16.9721 27.1235 16.9721C27.101 16.9721 27.0826 15.4148 27.0826 13.5115C27.0826 11.6081 27.101 10.0509 27.1235 10.0509C27.1462 10.0509 27.3433 10.1414 27.5616 10.252Z" fill="#F0E714"/>
</svg>
