<svg width="28" height="34" viewBox="0 0 28 34" fill="none" xmlns="http://www.w3.org/2000/svg">
<path fill-rule="evenodd" clip-rule="evenodd" d="M19.8405 0.111887C19.0954 0.436413 18.8609 1.45119 19.3866 2.07606C19.752 2.51025 19.9358 2.54468 21.8894 2.54468H23.6612L20.1037 6.10231L16.5461 9.65986L14.2987 7.4203C12.3597 5.48801 12.0105 5.17326 11.7531 5.12619C11.3257 5.04802 10.9336 5.14344 10.6382 5.39751C10.497 5.51894 8.08595 7.6257 5.28027 10.0793C-0.230796 14.899 -0.0676189 14.7321 0.028602 15.4494C0.136035 16.2507 1.02103 16.7568 1.75573 16.4371C1.90753 16.3711 4.14089 14.4695 6.71881 12.2113L11.406 8.10553L13.6769 10.3688C15.6373 12.3226 15.9887 12.6395 16.2461 12.6866C16.9841 12.8215 16.7907 12.9826 21.2915 8.48867L25.4424 4.34433L25.4664 6.22215C25.4889 7.97408 25.5014 8.11468 25.6544 8.31937C25.9662 8.73654 26.2202 8.86663 26.723 8.86663C27.2259 8.86663 27.48 8.73646 27.7917 8.31921C27.9508 8.10617 27.9563 7.99365 27.9778 4.50242L28 0.905112L27.8169 0.633388C27.7162 0.483888 27.513 0.280233 27.3654 0.180831L27.0971 0L23.5901 0.00310145C20.8544 0.00556661 20.0297 0.029423 19.8405 0.111887ZM21.1128 12.8338C20.792 12.9755 20.4584 13.3817 20.4013 13.6999C20.376 13.8408 20.3656 18.0776 20.3782 23.115C20.4009 32.2237 20.402 32.2753 20.5651 32.4936C20.6552 32.6144 20.8278 32.787 20.9486 32.8772C21.1613 33.036 21.2622 33.0411 24.1784 33.0411C27.0946 33.0411 27.1954 33.036 27.4081 32.8772C27.5289 32.787 27.7015 32.6144 27.7917 32.4936C27.9551 32.2747 27.9556 32.2436 27.9556 22.9022C27.9556 13.5607 27.9551 13.5296 27.7917 13.3107C27.7015 13.1899 27.5289 13.0173 27.4082 12.9272C27.197 12.7694 27.0789 12.7625 24.272 12.745C21.9683 12.7305 21.3044 12.7492 21.1128 12.8338ZM10.9341 15.3785C10.6134 15.5201 10.2796 15.9263 10.2224 16.2445C10.1971 16.3855 10.1867 20.0497 10.1994 24.3874C10.2222 32.2109 10.2237 32.2758 10.3863 32.4936C10.4765 32.6144 10.6491 32.787 10.7699 32.8772C10.9826 33.036 11.0834 33.0411 13.9996 33.0411C16.9158 33.0411 17.0167 33.036 17.2294 32.8772C17.3502 32.787 17.5227 32.6144 17.6129 32.4936C17.776 32.2752 17.7769 32.2309 17.7769 24.1745C17.7769 16.1181 17.776 16.0738 17.6129 15.8554C17.5227 15.7346 17.3502 15.562 17.2295 15.4718C17.0183 15.3141 16.9002 15.3071 14.0933 15.2897C11.7896 15.2752 11.1256 15.2939 10.9341 15.3785ZM25.4507 22.9022V30.5362H24.1784H22.906V22.9022V15.2681H24.1784H25.4507V22.9022ZM15.272 24.1745V30.5362H13.9996H12.7273V24.1745V17.8128H13.9996H15.272V24.1745ZM0.755348 19.1955C0.434717 19.3371 0.100967 19.7432 0.0435523 20.0616C0.0181054 20.2025 0.00776759 23.0079 0.020491 26.2959C0.0433136 32.1915 0.0458581 32.2771 0.207604 32.4936C0.297782 32.6144 0.470344 32.787 0.591136 32.8772C0.803856 33.036 0.904689 33.0411 3.8209 33.0411C6.7371 33.0411 6.83794 33.036 7.05066 32.8772C7.17145 32.787 7.34401 32.6144 7.43419 32.4936C7.59649 32.2762 7.59816 32.2118 7.59816 26.083C7.59816 19.9542 7.59649 19.8898 7.43419 19.6724C7.34401 19.5516 7.17145 19.379 7.05073 19.2889C6.83953 19.1311 6.72144 19.1242 3.91457 19.1067C1.61084 19.0922 0.946914 19.1109 0.755348 19.1955ZM5.09324 26.083V30.5362H3.8209H2.54855V26.083V21.6298H3.8209H5.09324V26.083Z" fill="#F0E714"/>
</svg>
