<svg width="32" height="31" viewBox="0 0 32 31" fill="none" xmlns="http://www.w3.org/2000/svg">
<path fill-rule="evenodd" clip-rule="evenodd" d="M10.0059 0.113909C9.73519 0.172691 9.21584 0.367734 8.85176 0.547466C7.23679 1.34464 6.15355 3.09964 6.15355 4.91912C6.15355 7.6788 8.53539 9.96207 11.2724 9.8262L11.893 9.79542L12.4065 10.9436L12.92 12.0918L12.4282 12.623C11.1868 13.9639 10.7569 15.9136 11.3431 17.5444C11.4557 17.8578 11.554 18.1502 11.5615 18.194C11.5691 18.2378 10.7015 19.0538 9.6337 20.0072L7.6922 21.7407L7.09468 21.4456C3.42642 19.6337 -0.737344 22.8743 0.111381 26.8806C0.408523 28.2833 1.41759 29.5872 2.69349 30.2169C4.17751 30.9495 5.66914 30.9511 7.14847 30.2218C9.28278 29.1697 10.3715 26.5142 9.57592 24.3009C9.46328 23.9875 9.36495 23.6944 9.35749 23.6498C9.34995 23.6051 10.2206 22.7884 11.2922 21.8349L13.2406 20.1012L13.834 20.3971C14.8415 20.8994 15.9344 21.0397 17.0311 20.8073C17.5814 20.6907 18.3782 20.3545 18.7766 20.0709C18.9276 19.9634 19.037 19.9323 19.0987 19.9793C19.8973 20.5885 22.3725 22.5082 22.4477 22.5768C22.5305 22.6523 22.5188 22.7572 22.3827 23.1614C22.2849 23.4516 22.2008 23.9384 22.1779 24.3465C21.9972 27.5712 24.9418 30.089 28.1172 29.4246C30.3254 28.9626 32 26.8886 32 24.6158C32 22.8017 30.9102 21.0311 29.3072 20.2407C27.7442 19.47 26.1009 19.5216 24.5864 20.389C24.2661 20.5724 24.0223 20.667 23.9709 20.6281C23.4292 20.2185 20.706 18.1067 20.63 18.0375C20.5472 17.9619 20.5586 17.8578 20.6937 17.4567C20.7843 17.1879 20.8777 16.6694 20.9013 16.3045L20.9443 15.6409L21.9408 15.312L22.9372 14.9832L23.0567 15.1638C23.1224 15.2632 23.4084 15.5719 23.6923 15.8499C25.5873 17.7059 28.6497 17.6723 30.541 15.7749C32.4822 13.8275 32.4822 10.7833 30.541 8.83583C28.6125 6.90102 25.5507 6.90302 23.6135 8.84029C22.7073 9.74649 22.1595 11.0204 22.1557 12.2306L22.1544 12.656L21.1475 12.9884L20.1405 13.3207L20.021 13.14C19.9553 13.0407 19.6651 12.7278 19.376 12.4448C18.4403 11.5287 17.1134 11.0262 15.8018 11.0914L15.1812 11.1222L14.6677 9.974L14.1542 8.82582L14.646 8.29455C16.4779 6.31596 16.4308 3.349 14.5375 1.44959C13.3451 0.253324 11.6569 -0.244246 10.0059 0.113909ZM11.8267 2.5813C12.414 2.77095 12.9053 3.18751 13.223 3.76502C13.4782 4.22889 13.498 4.31252 13.4969 4.91912C13.4959 5.51525 13.4726 5.61604 13.2343 6.05791C12.9432 6.59787 12.7018 6.831 12.1219 7.1323C11.7863 7.30672 11.6337 7.33634 11.075 7.33573C10.5409 7.33503 10.3506 7.30072 10.0363 7.1483C9.23808 6.76106 8.70296 5.97966 8.63125 5.09639C8.49176 3.37793 10.1797 2.04933 11.8267 2.5813ZM27.8302 9.96754C28.4175 10.1572 28.9089 10.5737 29.2265 11.1513C29.4817 11.6151 29.5015 11.6988 29.5005 12.3054C29.4994 12.9015 29.4761 13.0023 29.2379 13.4441C28.9463 13.9846 28.7043 14.2182 28.1255 14.5175C27.8002 14.6856 27.6267 14.7213 27.117 14.7248C25.9523 14.7327 25.1115 14.1365 24.7438 13.0418C24.1184 11.18 25.9464 9.35909 27.8302 9.96754ZM16.7509 13.6607C17.3716 13.8611 17.844 14.2712 18.1535 14.8782C18.3974 15.3566 18.4224 15.4651 18.4188 16.0294C18.4156 16.5263 18.3785 16.7226 18.2354 16.9987C17.9357 17.5774 17.6449 17.8844 17.1376 18.158C16.6935 18.3975 16.5987 18.419 15.9992 18.4167C15.2119 18.4138 14.7574 18.2279 14.2549 17.7035C13.8309 17.261 13.6033 16.765 13.5557 16.1801C13.4162 14.462 15.1061 13.1295 16.7509 13.6607ZM27.8302 22.2779C28.4175 22.4676 28.9089 22.8841 29.2265 23.4617C29.4817 23.9255 29.5015 24.0092 29.5005 24.6158C29.4994 25.2119 29.4761 25.3127 29.2379 25.7545C28.9467 26.2945 28.7053 26.5276 28.1255 26.8289C27.7898 27.0034 27.6372 27.033 27.0785 27.0324C26.5444 27.0317 26.3541 26.9974 26.0398 26.8449C24.9445 26.3136 24.3666 25.0185 24.7294 23.9082C25.1642 22.5775 26.5318 21.8585 27.8302 22.2779ZM5.95459 23.6199C6.42061 23.8413 6.86802 24.2902 7.13585 24.8055C7.30619 25.1332 7.33743 25.2934 7.33889 25.8468C7.34043 26.4457 7.3185 26.5416 7.07914 26.9856C6.788 27.5255 6.54656 27.7587 5.96674 28.06C5.63113 28.2344 5.47848 28.264 4.91982 28.2634C4.3857 28.2627 4.19535 28.2284 3.88113 28.076C1.88115 27.1058 2.0485 24.2723 4.15081 23.5084C4.63476 23.3325 5.4564 23.3833 5.95459 23.6199Z" fill="#F0E714"/>
</svg>
