<svg width="40" height="31" viewBox="0 0 40 31" fill="none" xmlns="http://www.w3.org/2000/svg">
<g filter="url(#filter0_d_5142_64)">
<path fill-rule="evenodd" clip-rule="evenodd" d="M8.91163 0.105544C8.68662 0.160119 8.33388 0.290128 8.12787 0.394563C7.64826 0.637579 6.92872 1.35641 6.68642 1.83451C6.28246 2.63171 6.28703 2.54363 6.28589 9.54238L6.28482 15.9829L5.51105 16.0071C4.80008 16.0293 4.71693 16.0468 4.48534 16.2237C4.03796 16.5653 3.99881 16.7348 4.00003 18.3279C4.00117 19.88 4.0741 20.3688 4.40055 21.0131C4.64221 21.49 5.36204 22.2098 5.839 22.4515C6.66699 22.8711 5.9548 22.8509 19.9724 22.852C28.4295 22.8527 32.9702 22.8281 33.2229 22.7802C33.8603 22.6593 34.466 22.3298 34.9614 21.8344C35.8231 20.9727 35.9985 20.3807 36 18.3279C36.0012 16.7348 35.962 16.5653 35.5147 16.2237C35.2831 16.0468 35.1999 16.0293 34.4889 16.0071L33.7152 15.9829L33.7141 9.54238C33.713 2.56978 33.716 2.62857 33.3247 1.85652C33.2272 1.66415 32.9665 1.31127 32.7452 1.07225C32.2907 0.58129 31.5781 0.184621 30.9374 0.0658276C30.6913 0.0201817 26.7272 -0.00339126 19.9367 0.000394698C11.139 0.00532359 9.25066 0.0233248 8.91163 0.105544ZM30.9018 2.46334C31.0103 2.54435 31.1653 2.69936 31.2463 2.80786C31.3922 3.00323 31.3938 3.06645 31.4126 9.5003L31.4315 15.9955H20.0011H8.57068V9.60688C8.57068 5.2551 8.59497 3.15417 8.6469 3.01716C8.74819 2.74972 8.98642 2.49806 9.2493 2.38076C9.42567 2.30212 11.3419 2.2879 20.0841 2.30062C30.6873 2.31605 30.7048 2.31626 30.9018 2.46334ZM9.71361 9.13792V14.8526H20H30.2864V9.13792V3.42326H20H9.71361V9.13792ZM28.0005 9.13792V12.5667H20H11.9995V9.13792V5.70912H20H28.0005V9.13792ZM15.4556 18.5075C15.5172 18.8155 15.7975 19.1656 16.0958 19.3071C16.3148 19.411 16.7577 19.4243 20 19.4243C23.2423 19.4243 23.6852 19.411 23.9042 19.3071C24.2025 19.1656 24.4828 18.8155 24.5444 18.5075L24.5896 18.2814H29.1587H33.7278L33.7036 19.0621C33.6775 19.9058 33.6155 20.0648 33.1876 20.3842L32.9904 20.5315H20H7.00965L6.81235 20.3842C6.38454 20.0648 6.32246 19.9058 6.29639 19.0621L6.27217 18.2814H10.8413H15.4104L15.4556 18.5075Z" fill="#F0E714"/>
</g>
<defs>
<filter id="filter0_d_5142_64" x="0" y="0" width="40" height="30.8521" filterUnits="userSpaceOnUse" color-interpolation-filters="sRGB">
<feFlood flood-opacity="0" result="BackgroundImageFix"/>
<feColorMatrix in="SourceAlpha" type="matrix" values="0 0 0 0 0 0 0 0 0 0 0 0 0 0 0 0 0 0 127 0" result="hardAlpha"/>
<feOffset dy="4"/>
<feGaussianBlur stdDeviation="2"/>
<feComposite in2="hardAlpha" operator="out"/>
<feColorMatrix type="matrix" values="0 0 0 0 0 0 0 0 0 0 0 0 0 0 0 0 0 0 0.25 0"/>
<feBlend mode="normal" in2="BackgroundImageFix" result="effect1_dropShadow_5142_64"/>
<feBlend mode="normal" in="SourceGraphic" in2="effect1_dropShadow_5142_64" result="shape"/>
</filter>
</defs>
</svg>
