<svg width="28" height="20" viewBox="0 0 28 20" fill="none" xmlns="http://www.w3.org/2000/svg">
<path id="inverted-commas (1) 1 (Traced)" fill-rule="evenodd" clip-rule="evenodd" d="M0 14.9078V9.94815H4.20924C7.78306 9.94815 8.41849 9.92715 8.41849 9.80928C8.41849 9.73294 8.36535 9.33082 8.30041 8.91567C8.00806 7.04579 6.79875 5.19117 5.14304 4.07341C3.84484 3.19701 2.56512 2.72721 0.984854 2.547L0 2.43459V1.23173V0.0288696L0.628653 0.0301342C0.974358 0.0308151 1.7001 0.113184 2.24129 0.213057C4.4325 0.617413 6.23515 1.48224 7.82657 2.89253C9.35863 4.2503 10.2597 5.6214 10.8546 7.49994C11.0828 8.22054 11.0922 8.44703 11.1262 14.0569L11.1614 19.8674H5.58069H0V14.9078ZM16.837 14.9078V9.94815H21.0072H25.1774L25.1187 9.18621C25.0497 8.29192 24.5809 6.99415 24.0381 6.19536C22.6163 4.10297 20.2537 2.76552 17.5203 2.50587L16.837 2.44101V1.22054V8.39233e-05L17.7936 0.0579453C19.1407 0.139441 20.3085 0.434004 21.7022 1.04404C24.6902 2.35163 26.7438 4.58639 27.6398 7.50538L27.9269 8.44081L27.9635 14.1541L28 19.8674H22.4185H16.837V14.9078ZM8.41849 14.9564V12.4766H5.63055H2.84261V14.9564V17.4362H5.63055H8.41849V14.9564ZM25.1461 14.9564V12.4766H22.3582H19.5703V14.9564V17.4362H22.3582H25.1461V14.9564Z" fill="#F37825"/>
</svg>
