<svg width="24" height="16" viewBox="0 0 24 16" fill="none" xmlns="http://www.w3.org/2000/svg">
<path id="Vector" fill-rule="evenodd" clip-rule="evenodd" d="M0 8.00003C0 7.77272 0.0903001 7.55471 0.251035 7.39398C0.41177 7.23324 0.629774 7.14294 0.857088 7.14294H21.0724L15.6779 1.75015C15.5169 1.58921 15.4265 1.37093 15.4265 1.14333C15.4265 0.915726 15.5169 0.697447 15.6779 0.536508C15.8388 0.37557 16.0571 0.285156 16.2847 0.285156C16.5123 0.285156 16.7306 0.37557 16.8915 0.536508L23.7482 7.39321C23.828 7.47283 23.8913 7.56741 23.9346 7.67154C23.9778 7.77567 24 7.88729 24 8.00003C24 8.11277 23.9778 8.2244 23.9346 8.32852C23.8913 8.43265 23.828 8.52723 23.7482 8.60685L16.8915 15.4636C16.7306 15.6245 16.5123 15.7149 16.2847 15.7149C16.0571 15.7149 15.8388 15.6245 15.6779 15.4636C15.5169 15.3026 15.4265 15.0843 15.4265 14.8567C15.4265 14.6291 15.5169 14.4109 15.6779 14.2499L21.0724 8.85712H0.857088C0.629774 8.85712 0.41177 8.76682 0.251035 8.60608C0.0903001 8.44535 0 8.22734 0 8.00003Z" fill="#24272E"/>
</svg>
