<svg width="15" height="11" viewBox="0 0 15 11" fill="none" xmlns="http://www.w3.org/2000/svg">
<path id="Vector" fill-rule="evenodd" clip-rule="evenodd" d="M0 5.5C0 5.35268 0.0564375 5.21139 0.156897 5.10722C0.257357 5.00305 0.393609 4.94452 0.53568 4.94452H13.1702L9.79866 1.44946C9.69807 1.34515 9.64157 1.20369 9.64157 1.05618C9.64157 0.908671 9.69807 0.767205 9.79866 0.662901C9.89925 0.558597 10.0357 0.5 10.1779 0.5C10.3202 0.5 10.4566 0.558597 10.5572 0.662901L14.8426 5.10672C14.8925 5.15832 14.9321 5.21962 14.9591 5.2871C14.9861 5.35459 15 5.42694 15 5.5C15 5.57306 14.9861 5.64541 14.9591 5.7129C14.9321 5.78038 14.8925 5.84168 14.8426 5.89328L10.5572 10.3371C10.4566 10.4414 10.3202 10.5 10.1779 10.5C10.0357 10.5 9.89925 10.4414 9.79866 10.3371C9.69807 10.2328 9.64157 10.0913 9.64157 9.94382C9.64157 9.79631 9.69807 9.65485 9.79866 9.55054L13.1702 6.05548H0.53568C0.393609 6.05548 0.257357 5.99695 0.156897 5.89278C0.0564375 5.78861 0 5.64732 0 5.5Z" fill="#F0E714"/>
</svg>
