<svg width="180" height="62" viewBox="0 0 180 62" fill="none" xmlns="http://www.w3.org/2000/svg">
<g filter="url(#filter0_d_0_2221)">
<path d="M5 4.85487L7.57576 5.75002C10.1515 6.64517 15.303 8.43547 20.4545 13.4013C25.6061 18.3671 30.7576 26.5085 35.9091 23.1564C41.0606 19.8042 46.2121 4.95857 51.3636 1.73115C56.5152 -1.49627 61.6667 6.89455 66.8182 8.78585C71.9697 10.6771 77.1212 6.06892 82.2727 12.0088C87.4242 17.9487 92.5758 34.4367 97.7273 35.6287C102.879 36.8207 108.03 7.12779 113.182 4.85487C118.333 2.58196 123.485 27.729 128.636 35.9161C133.788 44.1033 138.939 50.9193 144.091 44.3936C149.242 37.868 154.394 18.0006 159.545 10.4507C164.697 2.90073 169.848 7.66822 172.424 10.052L175 12.4357" stroke="#24272E" stroke-width="2" stroke-linecap="round"/>
</g>
<circle cx="114" cy="7" r="5" fill="#F0E714" stroke="black" stroke-width="3"/>
<defs>
<filter id="filter0_d_0_2221" x="-0.000274658" y="0.000244141" width="180" height="62" filterUnits="userSpaceOnUse" color-interpolation-filters="sRGB">
<feFlood flood-opacity="0" result="BackgroundImageFix"/>
<feColorMatrix in="SourceAlpha" type="matrix" values="0 0 0 0 0 0 0 0 0 0 0 0 0 0 0 0 0 0 127 0" result="hardAlpha"/>
<feOffset dy="10"/>
<feGaussianBlur stdDeviation="2"/>
<feComposite in2="hardAlpha" operator="out"/>
<feColorMatrix type="matrix" values="0 0 0 0 0 0 0 0 0 0 0 0 0 0 0 0 0 0 0.11 0"/>
<feBlend mode="normal" in2="BackgroundImageFix" result="effect1_dropShadow_0_2221"/>
<feBlend mode="normal" in="SourceGraphic" in2="effect1_dropShadow_0_2221" result="shape"/>
</filter>
</defs>
</svg>
