<svg width="182" height="182" viewBox="0 0 182 182" fill="none" xmlns="http://www.w3.org/2000/svg">
<mask id="mask0_0_440" style="mask-type:alpha" maskUnits="userSpaceOnUse" x="0" y="0" width="182" height="182">
<circle cx="91" cy="91" r="91" fill="#24272E" fill-opacity="0.66"/>
</mask>
<g mask="url(#mask0_0_440)">
<circle cx="4.14243" cy="6.70493" r="2.88462" fill="#24272E" fill-opacity="0.66"/>
<circle cx="4.14243" cy="22.7303" r="2.88462" fill="#24272E" fill-opacity="0.66"/>
<circle cx="4.14243" cy="38.1151" r="2.88462" fill="#24272E" fill-opacity="0.66"/>
<circle cx="4.14243" cy="53.4999" r="2.88462" fill="#24272E" fill-opacity="0.66"/>
<circle cx="4.14243" cy="69.5257" r="2.88462" fill="#24272E" fill-opacity="0.66"/>
<circle cx="4.14243" cy="84.9105" r="2.88462" fill="#24272E" fill-opacity="0.66"/>
<circle cx="4.14243" cy="100.295" r="2.88462" fill="#24272E" fill-opacity="0.66"/>
<circle cx="4.14243" cy="116.321" r="2.88462" fill="#24272E" fill-opacity="0.66"/>
<circle cx="4.14243" cy="131.705" r="2.88462" fill="#24272E" fill-opacity="0.66"/>
<circle cx="4.14243" cy="147.09" r="2.88462" fill="#24272E" fill-opacity="0.66"/>
<circle cx="4.14243" cy="163.116" r="2.88462" fill="#24272E" fill-opacity="0.66"/>
<circle cx="4.14243" cy="178.5" r="2.88462" fill="#24272E" fill-opacity="0.66"/>
<circle cx="15.6797" cy="6.70493" r="2.88462" fill="#24272E" fill-opacity="0.66"/>
<circle cx="15.6797" cy="22.7304" r="2.88462" fill="#24272E" fill-opacity="0.66"/>
<circle cx="15.6797" cy="38.1151" r="2.88462" fill="#24272E" fill-opacity="0.66"/>
<circle cx="15.6797" cy="53.4997" r="2.88462" fill="#24272E" fill-opacity="0.66"/>
<circle cx="15.6797" cy="69.5258" r="2.88462" fill="#24272E" fill-opacity="0.66"/>
<circle cx="15.6797" cy="84.9105" r="2.88462" fill="#24272E" fill-opacity="0.66"/>
<circle cx="15.6797" cy="100.295" r="2.88462" fill="#24272E" fill-opacity="0.66"/>
<circle cx="15.6797" cy="116.321" r="2.88462" fill="#24272E" fill-opacity="0.66"/>
<circle cx="15.6797" cy="131.705" r="2.88462" fill="#24272E" fill-opacity="0.66"/>
<circle cx="15.6797" cy="147.09" r="2.88462" fill="#24272E" fill-opacity="0.66"/>
<circle cx="15.6797" cy="163.116" r="2.88462" fill="#24272E" fill-opacity="0.66"/>
<circle cx="15.6797" cy="178.5" r="2.88462" fill="#24272E" fill-opacity="0.66"/>
<circle cx="26.576" cy="6.70493" r="2.88462" fill="#24272E" fill-opacity="0.66"/>
<circle cx="26.576" cy="22.7303" r="2.88462" fill="#24272E" fill-opacity="0.66"/>
<circle cx="26.576" cy="38.1151" r="2.88462" fill="#24272E" fill-opacity="0.66"/>
<circle cx="26.576" cy="53.4999" r="2.88462" fill="#24272E" fill-opacity="0.66"/>
<circle cx="26.576" cy="69.5257" r="2.88462" fill="#24272E" fill-opacity="0.66"/>
<circle cx="26.576" cy="84.9105" r="2.88462" fill="#24272E" fill-opacity="0.66"/>
<circle cx="26.576" cy="100.295" r="2.88462" fill="#24272E" fill-opacity="0.66"/>
<circle cx="26.576" cy="116.321" r="2.88462" fill="#24272E" fill-opacity="0.66"/>
<circle cx="26.576" cy="131.705" r="2.88462" fill="#24272E" fill-opacity="0.66"/>
<circle cx="26.576" cy="147.09" r="2.88462" fill="#24272E" fill-opacity="0.66"/>
<circle cx="26.576" cy="163.116" r="2.88462" fill="#24272E" fill-opacity="0.66"/>
<circle cx="26.576" cy="178.5" r="2.88462" fill="#24272E" fill-opacity="0.66"/>
<circle cx="38.1151" cy="6.70493" r="2.88462" fill="#24272E" fill-opacity="0.66"/>
<circle cx="38.1151" cy="22.7303" r="2.88462" fill="#24272E" fill-opacity="0.66"/>
<circle cx="38.1151" cy="38.1151" r="2.88462" fill="#24272E" fill-opacity="0.66"/>
<circle cx="38.1151" cy="53.4999" r="2.88462" fill="#24272E" fill-opacity="0.66"/>
<circle cx="38.1151" cy="69.5257" r="2.88462" fill="#24272E" fill-opacity="0.66"/>
<circle cx="38.1151" cy="84.9105" r="2.88462" fill="#24272E" fill-opacity="0.66"/>
<circle cx="38.1151" cy="100.295" r="2.88462" fill="#24272E" fill-opacity="0.66"/>
<circle cx="38.1151" cy="116.321" r="2.88462" fill="#24272E" fill-opacity="0.66"/>
<circle cx="38.1151" cy="131.705" r="2.88462" fill="#24272E" fill-opacity="0.66"/>
<circle cx="38.1151" cy="147.09" r="2.88462" fill="#24272E" fill-opacity="0.66"/>
<circle cx="38.1151" cy="163.116" r="2.88462" fill="#24272E" fill-opacity="0.66"/>
<circle cx="38.1151" cy="178.5" r="2.88462" fill="#24272E" fill-opacity="0.66"/>
<circle cx="49.0116" cy="6.70493" r="2.88462" fill="#24272E" fill-opacity="0.66"/>
<circle cx="49.0116" cy="22.7303" r="2.88462" fill="#24272E" fill-opacity="0.66"/>
<circle cx="49.0116" cy="38.1151" r="2.88462" fill="#24272E" fill-opacity="0.66"/>
<circle cx="49.0116" cy="53.4999" r="2.88462" fill="#24272E" fill-opacity="0.66"/>
<circle cx="49.0116" cy="69.5257" r="2.88462" fill="#24272E" fill-opacity="0.66"/>
<circle cx="49.0116" cy="84.9105" r="2.88462" fill="#24272E" fill-opacity="0.66"/>
<circle cx="49.0116" cy="100.295" r="2.88462" fill="#24272E" fill-opacity="0.66"/>
<circle cx="49.0116" cy="116.321" r="2.88462" fill="#24272E" fill-opacity="0.66"/>
<circle cx="49.0116" cy="131.705" r="2.88462" fill="#24272E" fill-opacity="0.66"/>
<circle cx="49.0116" cy="147.09" r="2.88462" fill="#24272E" fill-opacity="0.66"/>
<circle cx="49.0116" cy="163.116" r="2.88462" fill="#24272E" fill-opacity="0.66"/>
<circle cx="49.0116" cy="178.5" r="2.88462" fill="#24272E" fill-opacity="0.66"/>
<circle cx="60.5526" cy="6.70493" r="2.88462" fill="#24272E" fill-opacity="0.66"/>
<circle cx="60.5526" cy="22.7303" r="2.88462" fill="#24272E" fill-opacity="0.66"/>
<circle cx="60.5526" cy="38.1151" r="2.88462" fill="#24272E" fill-opacity="0.66"/>
<circle cx="60.5526" cy="53.4999" r="2.88462" fill="#24272E" fill-opacity="0.66"/>
<circle cx="60.5526" cy="69.5257" r="2.88462" fill="#24272E" fill-opacity="0.66"/>
<circle cx="60.5526" cy="84.9105" r="2.88462" fill="#24272E" fill-opacity="0.66"/>
<circle cx="60.5526" cy="100.295" r="2.88462" fill="#24272E" fill-opacity="0.66"/>
<circle cx="60.5526" cy="116.321" r="2.88462" fill="#24272E" fill-opacity="0.66"/>
<circle cx="60.5526" cy="131.705" r="2.88462" fill="#24272E" fill-opacity="0.66"/>
<circle cx="60.5526" cy="147.09" r="2.88462" fill="#24272E" fill-opacity="0.66"/>
<circle cx="60.5526" cy="163.116" r="2.88462" fill="#24272E" fill-opacity="0.66"/>
<circle cx="60.5526" cy="178.5" r="2.88462" fill="#24272E" fill-opacity="0.66"/>
<circle cx="71.4491" cy="6.70493" r="2.88462" fill="#24272E" fill-opacity="0.66"/>
<circle cx="71.4491" cy="22.7303" r="2.88462" fill="#24272E" fill-opacity="0.66"/>
<circle cx="71.4491" cy="38.1151" r="2.88462" fill="#24272E" fill-opacity="0.66"/>
<circle cx="71.4491" cy="53.4999" r="2.88462" fill="#24272E" fill-opacity="0.66"/>
<circle cx="71.4491" cy="69.5257" r="2.88462" fill="#24272E" fill-opacity="0.66"/>
<circle cx="71.4491" cy="84.9105" r="2.88462" fill="#24272E" fill-opacity="0.66"/>
<circle cx="71.4491" cy="100.295" r="2.88462" fill="#24272E" fill-opacity="0.66"/>
<circle cx="71.4491" cy="116.321" r="2.88462" fill="#24272E" fill-opacity="0.66"/>
<circle cx="71.4491" cy="131.705" r="2.88462" fill="#24272E" fill-opacity="0.66"/>
<circle cx="71.4491" cy="147.09" r="2.88462" fill="#24272E" fill-opacity="0.66"/>
<circle cx="71.4491" cy="163.116" r="2.88462" fill="#24272E" fill-opacity="0.66"/>
<circle cx="71.4491" cy="178.5" r="2.88462" fill="#24272E" fill-opacity="0.66"/>
<circle cx="82.9862" cy="6.70493" r="2.88462" fill="#24272E" fill-opacity="0.66"/>
<circle cx="82.9862" cy="22.7303" r="2.88462" fill="#24272E" fill-opacity="0.66"/>
<circle cx="82.9862" cy="38.1151" r="2.88462" fill="#24272E" fill-opacity="0.66"/>
<circle cx="82.9862" cy="53.4999" r="2.88462" fill="#24272E" fill-opacity="0.66"/>
<circle cx="82.9862" cy="69.5257" r="2.88462" fill="#24272E" fill-opacity="0.66"/>
<circle cx="82.9862" cy="84.9105" r="2.88462" fill="#24272E" fill-opacity="0.66"/>
<circle cx="82.9862" cy="100.295" r="2.88462" fill="#24272E" fill-opacity="0.66"/>
<circle cx="82.9862" cy="116.321" r="2.88462" fill="#24272E" fill-opacity="0.66"/>
<circle cx="82.9862" cy="131.705" r="2.88462" fill="#24272E" fill-opacity="0.66"/>
<circle cx="82.9862" cy="147.09" r="2.88462" fill="#24272E" fill-opacity="0.66"/>
<circle cx="82.9862" cy="163.116" r="2.88462" fill="#24272E" fill-opacity="0.66"/>
<circle cx="82.9862" cy="178.5" r="2.88462" fill="#24272E" fill-opacity="0.66"/>
<circle cx="93.8846" cy="6.70493" r="2.88462" fill="#24272E" fill-opacity="0.66"/>
<circle cx="93.8846" cy="22.7304" r="2.88462" fill="#24272E" fill-opacity="0.66"/>
<circle cx="93.8846" cy="38.1151" r="2.88462" fill="#24272E" fill-opacity="0.66"/>
<circle cx="93.8846" cy="53.4997" r="2.88462" fill="#24272E" fill-opacity="0.66"/>
<circle cx="93.8846" cy="69.5258" r="2.88462" fill="#24272E" fill-opacity="0.66"/>
<circle cx="93.8846" cy="84.9105" r="2.88462" fill="#24272E" fill-opacity="0.66"/>
<circle cx="93.8846" cy="100.295" r="2.88462" fill="#24272E" fill-opacity="0.66"/>
<circle cx="93.8846" cy="116.321" r="2.88462" fill="#24272E" fill-opacity="0.66"/>
<circle cx="93.8846" cy="131.705" r="2.88462" fill="#24272E" fill-opacity="0.66"/>
<circle cx="93.8846" cy="147.09" r="2.88462" fill="#24272E" fill-opacity="0.66"/>
<circle cx="93.8846" cy="163.116" r="2.88462" fill="#24272E" fill-opacity="0.66"/>
<circle cx="93.8846" cy="178.5" r="2.88462" fill="#24272E" fill-opacity="0.66"/>
<circle cx="105.424" cy="6.70493" r="2.88462" fill="#24272E" fill-opacity="0.66"/>
<circle cx="105.424" cy="22.7303" r="2.88462" fill="#24272E" fill-opacity="0.66"/>
<circle cx="105.424" cy="38.1151" r="2.88462" fill="#24272E" fill-opacity="0.66"/>
<circle cx="105.424" cy="53.4999" r="2.88462" fill="#24272E" fill-opacity="0.66"/>
<circle cx="105.424" cy="69.5257" r="2.88462" fill="#24272E" fill-opacity="0.66"/>
<circle cx="105.424" cy="84.9105" r="2.88462" fill="#24272E" fill-opacity="0.66"/>
<circle cx="105.424" cy="100.295" r="2.88462" fill="#24272E" fill-opacity="0.66"/>
<circle cx="105.424" cy="116.321" r="2.88462" fill="#24272E" fill-opacity="0.66"/>
<circle cx="105.424" cy="131.705" r="2.88462" fill="#24272E" fill-opacity="0.66"/>
<circle cx="105.424" cy="147.09" r="2.88462" fill="#24272E" fill-opacity="0.66"/>
<circle cx="105.424" cy="163.116" r="2.88462" fill="#24272E" fill-opacity="0.66"/>
<circle cx="105.424" cy="178.5" r="2.88462" fill="#24272E" fill-opacity="0.66"/>
<circle cx="116.32" cy="6.70493" r="2.88462" fill="#24272E" fill-opacity="0.66"/>
<circle cx="116.32" cy="22.7303" r="2.88462" fill="#24272E" fill-opacity="0.66"/>
<circle cx="116.32" cy="38.1151" r="2.88462" fill="#24272E" fill-opacity="0.66"/>
<circle cx="116.32" cy="53.4999" r="2.88462" fill="#24272E" fill-opacity="0.66"/>
<circle cx="116.32" cy="69.5257" r="2.88462" fill="#24272E" fill-opacity="0.66"/>
<circle cx="116.32" cy="84.9105" r="2.88462" fill="#24272E" fill-opacity="0.66"/>
<circle cx="116.32" cy="100.295" r="2.88462" fill="#24272E" fill-opacity="0.66"/>
<circle cx="116.32" cy="116.321" r="2.88462" fill="#24272E" fill-opacity="0.66"/>
<circle cx="116.32" cy="131.705" r="2.88462" fill="#24272E" fill-opacity="0.66"/>
<circle cx="116.32" cy="147.09" r="2.88462" fill="#24272E" fill-opacity="0.66"/>
<circle cx="116.32" cy="163.116" r="2.88462" fill="#24272E" fill-opacity="0.66"/>
<circle cx="116.32" cy="178.5" r="2.88462" fill="#24272E" fill-opacity="0.66"/>
<circle cx="127.859" cy="6.70493" r="2.88462" fill="#24272E" fill-opacity="0.66"/>
<circle cx="127.859" cy="22.7303" r="2.88462" fill="#24272E" fill-opacity="0.66"/>
<circle cx="127.859" cy="38.1151" r="2.88462" fill="#24272E" fill-opacity="0.66"/>
<circle cx="127.859" cy="53.4999" r="2.88462" fill="#24272E" fill-opacity="0.66"/>
<circle cx="127.859" cy="69.5257" r="2.88462" fill="#24272E" fill-opacity="0.66"/>
<circle cx="127.859" cy="84.9105" r="2.88462" fill="#24272E" fill-opacity="0.66"/>
<circle cx="127.859" cy="100.295" r="2.88462" fill="#24272E" fill-opacity="0.66"/>
<circle cx="127.859" cy="116.321" r="2.88462" fill="#24272E" fill-opacity="0.66"/>
<circle cx="127.859" cy="131.705" r="2.88462" fill="#24272E" fill-opacity="0.66"/>
<circle cx="127.859" cy="147.09" r="2.88462" fill="#24272E" fill-opacity="0.66"/>
<circle cx="127.859" cy="163.116" r="2.88462" fill="#24272E" fill-opacity="0.66"/>
<circle cx="127.859" cy="178.5" r="2.88462" fill="#24272E" fill-opacity="0.66"/>
<circle cx="138.758" cy="6.70493" r="2.88462" fill="#24272E" fill-opacity="0.66"/>
<circle cx="138.758" cy="22.7303" r="2.88462" fill="#24272E" fill-opacity="0.66"/>
<circle cx="138.758" cy="38.1151" r="2.88462" fill="#24272E" fill-opacity="0.66"/>
<circle cx="138.758" cy="53.4999" r="2.88462" fill="#24272E" fill-opacity="0.66"/>
<circle cx="138.758" cy="69.5257" r="2.88462" fill="#24272E" fill-opacity="0.66"/>
<circle cx="138.758" cy="84.9105" r="2.88462" fill="#24272E" fill-opacity="0.66"/>
<circle cx="138.758" cy="100.295" r="2.88462" fill="#24272E" fill-opacity="0.66"/>
<circle cx="138.758" cy="116.321" r="2.88462" fill="#24272E" fill-opacity="0.66"/>
<circle cx="138.758" cy="131.705" r="2.88462" fill="#24272E" fill-opacity="0.66"/>
<circle cx="138.758" cy="147.09" r="2.88462" fill="#24272E" fill-opacity="0.66"/>
<circle cx="138.758" cy="163.116" r="2.88462" fill="#24272E" fill-opacity="0.66"/>
<circle cx="138.758" cy="178.5" r="2.88462" fill="#24272E" fill-opacity="0.66"/>
<circle cx="150.295" cy="6.70493" r="2.88462" fill="#24272E" fill-opacity="0.66"/>
<circle cx="150.295" cy="22.7304" r="2.88462" fill="#24272E" fill-opacity="0.66"/>
<circle cx="150.295" cy="38.1151" r="2.88462" fill="#24272E" fill-opacity="0.66"/>
<circle cx="150.295" cy="53.4997" r="2.88462" fill="#24272E" fill-opacity="0.66"/>
<circle cx="150.295" cy="69.5258" r="2.88462" fill="#24272E" fill-opacity="0.66"/>
<circle cx="150.295" cy="84.9105" r="2.88462" fill="#24272E" fill-opacity="0.66"/>
<circle cx="150.295" cy="100.295" r="2.88462" fill="#24272E" fill-opacity="0.66"/>
<circle cx="150.295" cy="116.321" r="2.88462" fill="#24272E" fill-opacity="0.66"/>
<circle cx="150.295" cy="131.705" r="2.88462" fill="#24272E" fill-opacity="0.66"/>
<circle cx="150.295" cy="147.09" r="2.88462" fill="#24272E" fill-opacity="0.66"/>
<circle cx="150.295" cy="163.116" r="2.88462" fill="#24272E" fill-opacity="0.66"/>
<circle cx="150.295" cy="178.5" r="2.88462" fill="#24272E" fill-opacity="0.66"/>
<circle cx="161.193" cy="6.70493" r="2.88462" fill="#24272E" fill-opacity="0.66"/>
<circle cx="161.193" cy="22.7303" r="2.88462" fill="#24272E" fill-opacity="0.66"/>
<circle cx="161.193" cy="38.1151" r="2.88462" fill="#24272E" fill-opacity="0.66"/>
<circle cx="161.193" cy="53.4999" r="2.88462" fill="#24272E" fill-opacity="0.66"/>
<circle cx="161.193" cy="69.5257" r="2.88462" fill="#24272E" fill-opacity="0.66"/>
<circle cx="161.193" cy="84.9105" r="2.88462" fill="#24272E" fill-opacity="0.66"/>
<circle cx="161.193" cy="100.295" r="2.88462" fill="#24272E" fill-opacity="0.66"/>
<circle cx="161.193" cy="116.321" r="2.88462" fill="#24272E" fill-opacity="0.66"/>
<circle cx="161.193" cy="131.705" r="2.88462" fill="#24272E" fill-opacity="0.66"/>
<circle cx="161.193" cy="147.09" r="2.88462" fill="#24272E" fill-opacity="0.66"/>
<circle cx="161.193" cy="163.116" r="2.88462" fill="#24272E" fill-opacity="0.66"/>
<circle cx="161.193" cy="178.5" r="2.88462" fill="#24272E" fill-opacity="0.66"/>
<circle cx="172.73" cy="6.70493" r="2.88462" fill="#24272E" fill-opacity="0.66"/>
<circle cx="172.73" cy="22.7303" r="2.88462" fill="#24272E" fill-opacity="0.66"/>
<circle cx="172.73" cy="38.1151" r="2.88462" fill="#24272E" fill-opacity="0.66"/>
<circle cx="172.73" cy="53.4999" r="2.88462" fill="#24272E" fill-opacity="0.66"/>
<circle cx="172.73" cy="69.5257" r="2.88462" fill="#24272E" fill-opacity="0.66"/>
<circle cx="172.73" cy="84.9105" r="2.88462" fill="#24272E" fill-opacity="0.66"/>
<circle cx="172.73" cy="100.295" r="2.88462" fill="#24272E" fill-opacity="0.66"/>
<circle cx="172.73" cy="116.321" r="2.88462" fill="#24272E" fill-opacity="0.66"/>
<circle cx="172.73" cy="131.705" r="2.88462" fill="#24272E" fill-opacity="0.66"/>
<circle cx="172.73" cy="147.09" r="2.88462" fill="#24272E" fill-opacity="0.66"/>
<circle cx="172.73" cy="163.116" r="2.88462" fill="#24272E" fill-opacity="0.66"/>
<circle cx="172.73" cy="178.5" r="2.88462" fill="#24272E" fill-opacity="0.66"/>
<circle cx="183.627" cy="6.70493" r="2.88462" fill="#24272E" fill-opacity="0.66"/>
<circle cx="183.627" cy="22.7303" r="2.88462" fill="#24272E" fill-opacity="0.66"/>
<circle cx="183.627" cy="38.1151" r="2.88462" fill="#24272E" fill-opacity="0.66"/>
<circle cx="183.627" cy="53.4999" r="2.88462" fill="#24272E" fill-opacity="0.66"/>
<circle cx="183.627" cy="69.5257" r="2.88462" fill="#24272E" fill-opacity="0.66"/>
<circle cx="183.627" cy="84.9105" r="2.88462" fill="#24272E" fill-opacity="0.66"/>
<circle cx="183.627" cy="100.295" r="2.88462" fill="#24272E" fill-opacity="0.66"/>
<circle cx="183.627" cy="116.321" r="2.88462" fill="#24272E" fill-opacity="0.66"/>
<circle cx="183.627" cy="131.705" r="2.88462" fill="#24272E" fill-opacity="0.66"/>
<circle cx="183.627" cy="147.09" r="2.88462" fill="#24272E" fill-opacity="0.66"/>
<circle cx="183.627" cy="163.116" r="2.88462" fill="#24272E" fill-opacity="0.66"/>
<circle cx="183.627" cy="178.5" r="2.88462" fill="#24272E" fill-opacity="0.66"/>
</g>
</svg>
