<svg width="34" height="34" viewBox="0 0 34 34" fill="none" xmlns="http://www.w3.org/2000/svg">
<path id="Star 11" d="M15.8746 1.0414C16.2612 -0.00333762 17.7388 -0.00333488 18.1254 1.04141L21.9402 11.3508C22.0618 11.6792 22.3208 11.9382 22.6492 12.0598L32.9586 15.8746C34.0033 16.2612 34.0033 17.7388 32.9586 18.1254L22.6492 21.9402C22.3208 22.0618 22.0618 22.3208 21.9402 22.6492L18.1254 32.9586C17.7388 34.0033 16.2612 34.0033 15.8746 32.9586L12.0598 22.6492C11.9382 22.3208 11.6792 22.0618 11.3508 21.9402L1.0414 18.1254C-0.0033375 17.7388 -0.00333488 16.2612 1.04141 15.8746L11.3508 12.0598C11.6792 11.9382 11.9382 11.6792 12.0598 11.3508L15.8746 1.0414Z" fill="#F0E714"/>
</svg>
