<svg width="15" height="10" viewBox="0 0 15 10" fill="none" xmlns="http://www.w3.org/2000/svg">
<path id="Vector" fill-rule="evenodd" clip-rule="evenodd" d="M0 5C0 4.85268 0.0564375 4.71139 0.156897 4.60722C0.257357 4.50305 0.393609 4.44452 0.53568 4.44452H13.1702L9.79866 0.949458C9.69807 0.845154 9.64157 0.703687 9.64157 0.556179C9.64157 0.408671 9.69807 0.267205 9.79866 0.162901C9.89925 0.0585972 10.0357 3.47541e-09 10.1779 0C10.3202 -3.47541e-09 10.4566 0.0585972 10.5572 0.162901L14.8426 4.60672C14.8925 4.65832 14.9321 4.71962 14.9591 4.7871C14.9861 4.85459 15 4.92694 15 5C15 5.07306 14.9861 5.14541 14.9591 5.2129C14.9321 5.28038 14.8925 5.34168 14.8426 5.39328L10.5572 9.8371C10.4566 9.9414 10.3202 10 10.1779 10C10.0357 10 9.89925 9.9414 9.79866 9.8371C9.69807 9.7328 9.64157 9.59133 9.64157 9.44382C9.64157 9.29631 9.69807 9.15485 9.79866 9.05054L13.1702 5.55548H0.53568C0.393609 5.55548 0.257357 5.49695 0.156897 5.39278C0.0564375 5.28861 0 5.14732 0 5Z" fill="#24272E"/>
</svg>
