<svg width="166" height="33" viewBox="0 0 166 33" fill="none" xmlns="http://www.w3.org/2000/svg">
<g id="Dropbox_logo_2017 1" clip-path="url(#clip0_0_1821)">
<path id="Vector" d="M19.256 6.20112L9.628 12.4022L19.256 18.6034L9.628 24.8045L0 18.5698L9.628 12.3687L0 6.20112L9.628 0L19.256 6.20112ZM9.5782 26.7989L19.2062 20.5978L28.8342 26.7989L19.2062 33L9.5782 26.7989ZM19.256 18.5698L28.884 12.3687L19.256 6.20112L28.8342 0L38.4622 6.20112L28.8342 12.4022L38.4622 18.6034L28.8342 24.8045L19.256 18.5698Z" fill="#B9B9B9"/>
<path id="Vector_2" d="M46.0156 6.20105H53.801C58.7644 6.20105 62.8646 9.10049 62.8646 15.7206V17.1117C62.8646 23.7821 59.03 26.7821 53.9504 26.7821H46.0156V6.20105ZM50.3648 9.93848V23.0279H53.7014C56.5234 23.0279 58.4158 21.1675 58.4158 17.0279V15.9385C58.4158 11.7988 56.4238 9.93848 53.552 9.93848H50.3648ZM65.172 10.1396H68.658L69.2224 14.0111C69.8864 11.3798 71.5796 9.972 74.6506 9.972H75.7296V14.4133H73.9368C70.401 14.4133 69.5378 15.6536 69.5378 19.1731V26.8323H65.2384V10.1396H65.172ZM76.5928 18.8212V18.3519C76.5928 12.7709 80.1286 9.7206 84.9426 9.7206C89.8562 9.7206 93.2924 12.7709 93.2924 18.3519V18.8212C93.2924 24.3016 89.9558 27.2513 84.9426 27.2513C79.614 27.2011 76.5928 24.3184 76.5928 18.8212ZM88.8934 18.7709V18.3519C88.8934 15.2513 87.3496 13.391 84.8928 13.391C82.4858 13.391 80.8922 15.1005 80.8922 18.3519V18.7709C80.8922 21.7709 82.436 23.4804 84.8928 23.4804C87.3496 23.4301 88.8934 21.7709 88.8934 18.7709ZM95.55 10.1396H99.1356L99.5506 13.2904C100.414 11.1787 102.256 9.7206 104.979 9.7206C109.179 9.7206 111.951 12.7709 111.951 18.4189V18.8882C111.951 24.3687 108.88 27.2681 104.979 27.2681C102.373 27.2681 100.58 26.0781 99.7 24.1675V32.5977H95.5002L95.55 10.1396ZM107.585 18.7709V18.4022C107.585 15.0837 105.892 13.4413 103.634 13.4413C101.227 13.4413 99.6336 15.3016 99.6336 18.4022V18.7206C99.6336 21.6703 101.177 23.5307 103.584 23.5307C106.058 23.4804 107.585 21.8882 107.585 18.7709ZM118.309 23.7485L117.943 26.7988H114.258V4.55859H118.458V13.0893C119.388 10.9105 121.23 9.7206 123.836 9.7206C127.787 9.77088 130.709 12.5195 130.709 18.0502V18.5698C130.709 24.1005 127.937 27.2681 123.737 27.2681C120.965 27.2011 119.172 25.9105 118.309 23.7485ZM126.293 18.5698V18.1508C126.293 15.1005 124.65 13.391 122.342 13.391C119.985 13.391 118.342 15.3016 118.342 18.2011V18.5698C118.342 21.6703 119.935 23.4804 122.293 23.4804C124.816 23.4804 126.293 21.8882 126.293 18.5698ZM132.551 18.8212V18.3519C132.551 12.7709 136.087 9.7206 140.901 9.7206C145.815 9.7206 149.251 12.7709 149.251 18.3519V18.8212C149.251 24.3016 145.865 27.2513 140.901 27.2513C135.573 27.2011 132.551 24.3184 132.551 18.8212ZM144.885 18.7709V18.3519C144.885 15.2513 143.341 13.391 140.885 13.391C138.478 13.391 136.884 15.1005 136.884 18.3519V18.7709C136.884 21.7709 138.428 23.4804 140.885 23.4804C143.358 23.4301 144.885 21.7709 144.885 18.7709ZM154.878 18.1508L149.085 10.1396H154.048L157.385 15.1508L160.771 10.1396H165.685L159.809 18.1005L166 26.7988H161.137L157.352 21.2681L153.667 26.7988H148.587L154.878 18.1508Z" fill="#B9B9B9"/>
</g>
<defs>
<clipPath id="clip0_0_1821">
<rect width="166" height="33" fill="white"/>
</clipPath>
</defs>
</svg>
