<svg width="188" height="23" viewBox="0 0 188 23" fill="none" xmlns="http://www.w3.org/2000/svg">
<g id="Layer_2">
<g id="Layer_1-2">
<g id="g27661">
<g id="Layer_2-2">
<g id="Blue">
<path id="path27635" d="M103.178 9.19913C103.178 11.9188 104.477 14.1014 109.553 15.0567C112.583 15.6754 113.217 16.1548 113.217 17.1407C113.217 18.1266 112.583 18.7181 110.431 18.7181C107.852 18.6726 105.324 18.0046 103.073 16.7735V21.2271C104.602 21.958 106.621 22.7773 110.386 22.7773C115.696 22.7773 117.802 20.4689 117.802 17.0319L103.178 9.19913ZM117.802 17.0319C117.802 13.792 116.044 12.2724 111.079 11.2287C108.338 10.6372 107.673 10.0456 107.673 9.18894C107.673 8.11805 108.655 7.6693 110.459 7.6693C112.652 7.6693 114.815 8.31863 116.866 9.21953V4.97338C114.9 4.09945 112.758 3.66617 110.598 3.70532C105.692 3.70532 103.153 5.7893 103.153 9.19913" fill="#B9B9B9"/>
<path id="polygon27637" d="M175.425 22.4952V8.38328L177.128 12.1297L182.842 22.4952H187.919V3.98755H183.879V15.9339L182.351 12.4663L177.761 3.98755H171.386V22.4952H175.425Z" fill="#B9B9B9"/>
<path id="rect27639" d="M141.279 3.98755H145.694V22.4952H141.279V3.98755Z" fill="#B9B9B9"/>
<path id="path27641" d="M136.185 17.0319C136.185 13.792 134.427 12.2724 129.461 11.2287C126.721 10.6372 126.056 10.0456 126.056 9.18894C126.056 8.11805 127.038 7.6693 128.841 7.6693C131.035 7.6693 133.197 8.31863 135.248 9.21953V4.97338C133.282 4.09945 131.141 3.66617 128.981 3.70532C124.074 3.70532 121.536 5.7893 121.536 9.19913C121.536 11.9188 122.835 14.1014 127.912 15.0567C130.941 15.6754 131.575 16.1548 131.575 17.1407C131.575 18.1266 130.941 18.7181 128.789 18.7181C126.21 18.6726 123.682 18.0046 121.431 16.7735V21.2271C122.96 21.958 124.98 22.7773 128.744 22.7773C134.054 22.7773 136.161 20.4689 136.161 17.0319" fill="#B9B9B9"/>
<path id="polygon27643" d="M77.9607 22.4952L79.3884 18.4972H73.3296V3.98755H68.8864V22.4952H77.9607Z" fill="#B9B9B9"/>
<path id="polygon27645" d="M55.8631 7.98893V22.4952H60.3063V7.98893H65.5573V3.98755H50.9569V7.98893H55.8631Z" fill="#B9B9B9"/>
<path id="path27647" d="M44.515 3.98755H38.693L32.077 22.4952H37.1434L38.0697 19.3777C40.3814 20.0424 42.8405 20.0424 45.1522 19.3777L46.0889 22.4952H51.138L44.515 3.98755ZM41.604 16.0427C40.779 16.0438 39.9582 15.9293 39.1665 15.7027L41.604 7.62176L44.0415 15.7027C43.2498 15.9293 42.429 16.0438 41.604 16.0427Z" fill="#B9B9B9"/>
<path id="path27649" d="M93.602 3.98755H87.78L81.164 22.4952H86.213L87.1567 19.3777C89.4641 20.0397 91.9179 20.0397 94.2253 19.3777L95.162 22.4952H100.211L93.602 3.98755ZM90.691 16.0427C89.866 16.0438 89.0452 15.9293 88.2535 15.7027L90.691 7.62176L93.1285 15.7027C92.3368 15.9293 91.516 16.0438 90.691 16.0427Z" fill="#B9B9B9"/>
<path id="path27651" d="M161.6 3.98755H155.778L149.162 22.4952H154.211L155.155 19.3777C157.462 20.0397 159.916 20.0397 162.223 19.3777L163.16 22.4952H168.209L161.6 3.98755ZM158.689 16.0427C157.864 16.0438 157.043 15.9293 156.251 15.7027L158.689 7.62176L161.126 15.7027C160.335 15.9293 159.514 16.0438 158.689 16.0427Z" fill="#B9B9B9"/>
</g>
</g>
<g id="g27659">
<path id="path27655" d="M6.62866 10.4964V10.4963C6.56922 10.4286 6.49399 10.3759 6.40931 10.3426C6.32463 10.3092 6.23299 10.2963 6.14211 10.3048C6.0654 10.3184 5.99339 10.3506 5.93259 10.3982C5.87179 10.4459 5.82411 10.5076 5.79386 10.5777L0.0532886 21.7807C0.0148676 21.8556 -0.00330633 21.9388 0.000494074 22.0224C0.00429448 22.1061 0.029943 22.1874 0.0750017 22.2587C0.12006 22.3299 0.183032 22.3887 0.257932 22.4295C0.332831 22.4703 0.41717 22.4917 0.502931 22.4917H8.49607C8.58968 22.4935 8.68182 22.4688 8.76131 22.4205C8.8408 22.3721 8.90422 22.3023 8.94386 22.2195C10.6232 18.8362 9.58394 13.5787 6.62866 10.4964Z" fill="#B9B9B9"/>
<path id="path27657" d="M23.0001 21.7846C22.8925 21.5743 12.2448 0.773758 11.9829 0.256571C11.9487 0.184111 11.895 0.122042 11.8276 0.076935C11.7601 0.0318281 11.6815 0.00536235 11.5999 0.000339964L11.5818 0C11.4885 0.00469236 11.398 0.0325019 11.3188 0.0808058C11.2396 0.12911 11.1743 0.196316 11.1291 0.276085L11.1286 0.276561C8.24233 4.74056 7.9153 10.1304 10.254 14.6944L14.1072 22.2178C14.148 22.3009 14.2119 22.371 14.2917 22.4201C14.3716 22.4692 14.4639 22.4953 14.5583 22.4954H22.5502C22.636 22.4955 22.7204 22.4741 22.7953 22.4334C22.8703 22.3926 22.9333 22.3338 22.9784 22.2626C23.0235 22.1914 23.0491 22.11 23.0529 22.0264C23.0567 21.9427 23.0386 21.8595 23.0001 21.7846Z" fill="#B9B9B9"/>
</g>
</g>
</g>
</g>
</svg>
