<svg width="16" height="16" viewBox="0 0 16 16" fill="none" xmlns="http://www.w3.org/2000/svg">
<g id="ci:location">
<path id="Vector" d="M7.9987 13.9999C7.15666 13.2816 6.37616 12.4942 5.66537 11.6459C4.5987 10.3719 3.33203 8.47457 3.33203 6.66656C3.33157 5.74321 3.60504 4.84046 4.11783 4.07258C4.63062 3.3047 5.35968 2.7062 6.21274 2.35283C7.06581 1.99946 8.00453 1.90709 8.91011 2.08743C9.81569 2.26776 10.6474 2.71269 11.3 3.3659C11.7345 3.79847 12.0789 4.31292 12.3133 4.87948C12.5476 5.44604 12.6673 6.05345 12.6654 6.66656C12.6654 8.47457 11.3987 10.3719 10.332 11.6459C9.62123 12.4942 8.84074 13.2816 7.9987 13.9999ZM7.9987 4.66657C7.46827 4.66657 6.95956 4.87728 6.58448 5.25235C6.20941 5.62742 5.9987 6.13613 5.9987 6.66656C5.9987 7.197 6.20941 7.70571 6.58448 8.08078C6.95956 8.45585 7.46827 8.66656 7.9987 8.66656C8.52913 8.66656 9.03784 8.45585 9.41291 8.08078C9.78799 7.70571 9.9987 7.197 9.9987 6.66656C9.9987 6.13613 9.78799 5.62742 9.41291 5.25235C9.03784 4.87728 8.52913 4.66657 7.9987 4.66657Z" fill="#101C26"/>
</g>
</svg>
