<svg width="28" height="27" viewBox="0 0 28 27" fill="none" xmlns="http://www.w3.org/2000/svg">
<g id="Group 1094">
<rect id="Rectangle 719" x="0.915466" y="0.0422363" width="26.9155" height="26.9155" rx="13.4577" fill="#F0E714"/>
<path id="Vector" d="M17.0138 6.9436C17.25 6.96947 17.4599 6.96947 17.6961 6.99533C17.8535 6.99533 18.011 7.02119 18.1684 7.04706C18.1684 7.74536 18.1684 8.41781 18.1684 9.14198C18.116 9.14198 18.0372 9.14198 17.9847 9.14198C17.5386 9.14198 17.0926 9.14198 16.6465 9.16784C16.0954 9.19371 15.7805 9.4782 15.7543 10.0213C15.728 10.5903 15.7543 11.1593 15.7543 11.7542C16.5152 11.7542 17.3025 11.7542 18.0897 11.7542C17.9848 12.5301 17.8798 13.306 17.7748 14.0819C17.0926 14.0819 16.4365 14.0819 15.7543 14.0819C15.7543 16.0733 15.7543 18.0648 15.7543 20.0563C14.9408 20.0563 14.1273 20.0563 13.3138 20.0563C13.3138 18.0648 13.3138 16.0992 13.3138 14.0819C12.6316 14.0819 11.9493 14.0819 11.267 14.0819C11.267 13.306 11.267 12.5301 11.267 11.7542C11.9493 11.7542 12.6053 11.7542 13.3138 11.7542C13.3138 11.6766 13.3138 11.6507 13.3138 11.599C13.3138 10.9783 13.3138 10.3834 13.3138 9.7627C13.3401 9.03853 13.5762 8.36608 14.1011 7.79709C14.4947 7.38328 14.9933 7.15051 15.5706 7.02119C15.728 6.99533 15.8855 6.96947 16.0167 6.9436C16.3316 6.9436 16.6727 6.9436 17.0138 6.9436Z" fill="#101C26"/>
</g>
</svg>
