<svg width="27" height="27" viewBox="0 0 27 27" fill="none" xmlns="http://www.w3.org/2000/svg">
<g id="Group 1093">
<rect id="Rectangle 720" y="0.0422363" width="26.9155" height="26.9155" rx="13.4577" fill="#F0E714"/>
<g id="Group">
<path id="Vector" d="M14.6404 20.6788C13.6696 20.6788 12.7559 20.6788 11.7852 20.6788C11.7852 17.6236 11.7852 14.5685 11.7852 11.4848C12.6703 11.4848 13.584 11.4848 14.4977 11.4848C14.4977 11.8846 14.4977 12.2843 14.4977 12.7126C14.5262 12.684 14.5548 12.684 14.5548 12.684C15.1544 11.7133 16.0395 11.285 17.153 11.2564C17.7812 11.2279 18.4094 11.3135 18.9804 11.599C19.7228 11.9417 20.1511 12.5698 20.3795 13.3408C20.5793 13.9689 20.6365 14.5971 20.6365 15.2252C20.6365 16.9955 20.6365 18.7657 20.6365 20.536C20.6365 20.5646 20.6365 20.5931 20.6365 20.6217C19.6942 20.6217 18.752 20.6217 17.7812 20.6217C17.7812 20.5646 17.7812 20.5075 17.7812 20.4218C17.7812 18.9085 17.7812 17.4238 17.7812 15.9105C17.7812 15.5679 17.7526 15.2252 17.6955 14.8826C17.5242 13.9404 16.8961 13.6263 16.0395 13.7405C15.24 13.8262 14.8117 14.3115 14.669 15.1681C14.6119 15.4822 14.6119 15.7963 14.6119 16.1104C14.6119 17.538 14.6119 18.9942 14.6119 20.4218C14.6404 20.536 14.6404 20.5931 14.6404 20.6788Z" fill="#101C26"/>
<path id="Vector_2" d="M7.12891 11.5129C8.07114 11.5129 9.01338 11.5129 9.95561 11.5129C9.95561 14.5681 9.95561 17.6232 9.95561 20.6783C9.01338 20.6783 8.07114 20.6783 7.12891 20.6783C7.12891 17.6232 7.12891 14.5681 7.12891 11.5129Z" fill="#101C26"/>
<path id="Vector_3" d="M10.1859 8.5719C10.1859 9.48558 9.44352 10.2279 8.55839 10.2565C7.64471 10.2565 6.90234 9.51413 6.90234 8.60045C6.90234 7.68677 7.64471 6.9444 8.55839 6.9444C9.44352 6.91585 10.1859 7.65822 10.1859 8.5719Z" fill="#101C26"/>
</g>
</g>
</svg>
