<svg width="97" height="68" viewBox="0 0 97 68" fill="none" xmlns="http://www.w3.org/2000/svg">
<g id="logo 1">
<path id="Vector" d="M2.23633 35.5814V15.5608H7.66817V19.054H7.87857C8.24682 17.8114 8.86497 16.8729 9.73303 16.2386C10.6011 15.5956 11.6006 15.2741 12.7317 15.2741C13.0123 15.2741 13.3148 15.2914 13.6392 15.3262C13.9636 15.3609 14.2486 15.4088 14.4941 15.4696V20.3965C14.2311 20.3183 13.8672 20.2488 13.4025 20.188C12.9377 20.1271 12.5125 20.0967 12.1267 20.0967C11.3025 20.0967 10.566 20.2748 9.91716 20.6311C9.27708 20.9787 8.76856 21.4653 8.3915 22.0909C8.02325 22.7166 7.83912 23.4378 7.83912 24.2546V35.5814H2.23633ZM17.3909 35.5814V15.5608H22.9936V35.5814H17.3909ZM20.2054 12.9801C19.3724 12.9801 18.6579 12.7063 18.0616 12.1589C17.4742 11.6028 17.1804 10.938 17.1804 10.1647C17.1804 9.39998 17.4742 8.7439 18.0616 8.19648C18.6579 7.64033 19.3724 7.3623 20.2054 7.3623C21.0384 7.3623 21.7486 7.64033 22.336 8.19648C22.9323 8.7439 23.2304 9.39998 23.2304 10.1647C23.2304 10.938 22.9323 11.6028 22.336 12.1589C21.7486 12.7063 21.0384 12.9801 20.2054 12.9801ZM44.2902 21.2698L39.1609 21.5826C39.0732 21.1482 38.8847 20.7571 38.5954 20.4095C38.306 20.0533 37.9246 19.7709 37.4511 19.5623C36.9864 19.3451 36.4297 19.2365 35.7808 19.2365C34.9128 19.2365 34.1806 19.4189 33.5844 19.7839C32.9882 20.1401 32.6901 20.6181 32.6901 21.2177C32.6901 21.6956 32.8829 22.0996 33.2688 22.4298C33.6545 22.7601 34.3165 23.0251 35.2547 23.2249L38.911 23.9548C40.875 24.3546 42.3393 24.9976 43.3038 25.8839C44.2683 26.7702 44.7506 27.9346 44.7506 29.3771C44.7506 30.6892 44.3604 31.8405 43.58 32.8312C42.8084 33.8218 41.7475 34.5951 40.3972 35.1512C39.0557 35.6986 37.5081 35.9724 35.7545 35.9724C33.0802 35.9724 30.9496 35.4206 29.3625 34.317C27.7843 33.2048 26.8593 31.6928 26.5875 29.7811L32.0982 29.4944C32.2648 30.3025 32.6681 30.9194 33.3082 31.3452C33.9483 31.7624 34.7681 31.9709 35.7677 31.9709C36.7496 31.9709 37.5388 31.784 38.135 31.4104C38.74 31.0281 39.0469 30.5371 39.0557 29.9376C39.0469 29.4336 38.8321 29.0208 38.4112 28.6993C37.9904 28.3691 37.3415 28.1171 36.4647 27.9433L32.9662 27.2525C30.9934 26.8615 29.5248 26.1837 28.5603 25.2191C27.6045 24.2546 27.1267 23.0251 27.1267 21.5305C27.1267 20.2444 27.4774 19.1365 28.1789 18.2068C28.8891 17.277 29.8843 16.5601 31.1644 16.0561C32.4533 15.5521 33.9614 15.3001 35.6888 15.3001C38.2403 15.3001 40.2481 15.8345 41.7124 16.9033C43.1855 17.9721 44.0447 19.4276 44.2902 21.2698ZM57.4851 35.9724C55.407 35.9724 53.6184 35.5553 52.119 34.7211C50.6285 33.8782 49.4798 32.6878 48.6732 31.1498C47.8665 29.603 47.4632 27.7739 47.4632 25.6623C47.4632 23.6029 47.8665 21.7955 48.6732 20.2401C49.4798 18.6847 50.6153 17.4725 52.0796 16.6035C53.5526 15.7346 55.2799 15.3001 57.2615 15.3001C58.5942 15.3001 59.8348 15.513 60.9835 15.9388C62.141 16.3559 63.1492 16.9859 64.0087 17.8288C64.8764 18.6717 65.5519 19.7318 66.0339 21.0091C66.516 22.2778 66.757 23.7637 66.757 25.4668V26.9918H49.699V23.5508H61.4832C61.4832 22.7513 61.308 22.0432 60.957 21.4262C60.6067 20.8093 60.1199 20.327 59.4973 19.9794C58.8836 19.6231 58.169 19.445 57.3536 19.445C56.5031 19.445 55.749 19.6405 55.0914 20.0315C54.4426 20.4139 53.934 20.9309 53.5658 21.5826C53.1975 22.2256 53.009 22.9425 53.0002 23.7333V27.0048C53.0002 27.9954 53.1843 28.8514 53.5526 29.5726C53.9296 30.2938 54.4601 30.8499 55.144 31.241C55.8279 31.632 56.6389 31.8275 57.5771 31.8275C58.1997 31.8275 58.7696 31.7406 59.2869 31.5668C59.8042 31.393 60.2469 31.1323 60.6155 30.7847C60.9835 30.4372 61.2639 30.0114 61.4573 29.5074L66.6389 29.8463C66.3761 31.0802 65.8364 32.1577 65.021 33.0788C64.2145 33.9912 63.171 34.7037 61.8912 35.2164C60.6196 35.7204 59.1511 35.9724 57.4851 35.9724Z" fill="#F0E714"/>
<path id="Vector_2" fill-rule="evenodd" clip-rule="evenodd" d="M90.6027 7.85721C91.8466 7.85721 92.8549 6.85757 92.8549 5.62462C92.8549 4.3917 91.8466 3.39233 90.6027 3.39233C89.3587 3.39233 88.3499 4.3917 88.3499 5.62462C88.3499 6.41065 88.7603 7.10221 89.3799 7.4999C83.0814 18.7296 77.8369 19.6371 68.6607 8.22589C68.5784 8.12434 68.4297 8.09387 68.318 8.16128C68.2439 8.20567 68.201 8.28135 68.1951 8.361C68.1898 8.421 68.2051 8.48334 68.2433 8.53595C77.9233 22.0113 78.306 28.9355 76.4495 40.7345C76.4295 40.8571 76.5253 40.9706 76.6506 40.9706C76.747 40.9706 76.8305 40.9014 76.851 40.8085C79.8915 27.1259 84.6181 23.5751 96.4256 22.1721C96.5291 22.1598 96.6096 22.0728 96.6096 21.9695C96.6096 21.8424 96.4868 21.7477 96.3604 21.7701C83.8068 24.007 83.5246 19.7111 89.7979 7.7104C90.0477 7.80513 90.3187 7.85721 90.6027 7.85721Z" fill="white"/>
<path id="Vector_3" d="M6.6637 62.0504C5.52137 62.0504 4.53767 61.783 3.71263 61.2481C2.8876 60.7139 2.25296 59.9774 1.80871 59.0389C1.36446 58.101 1.14233 57.0291 1.14233 55.8236C1.14233 54.5972 1.36975 53.5149 1.82457 52.5767C2.28469 51.6332 2.92462 50.8969 3.74437 50.3675C4.5694 49.8328 5.53194 49.5655 6.63196 49.5655C7.48873 49.5655 8.26091 49.7228 8.94844 50.0373C9.63596 50.3518 10.1992 50.792 10.6382 51.358C11.0771 51.9241 11.3495 52.5846 11.4553 53.3393H9.58305C9.44026 52.7889 9.12298 52.3015 8.6311 51.877C8.14457 51.4472 7.48873 51.2323 6.6637 51.2323C5.93391 51.2323 5.29395 51.421 4.74393 51.7983C4.19919 52.1705 3.77346 52.6972 3.46671 53.3786C3.16525 54.0547 3.01453 54.8487 3.01453 55.7608C3.01453 56.6937 3.16261 57.5061 3.45878 58.1979C3.76023 58.8897 4.18333 59.4269 4.72806 59.8097C5.27809 60.1924 5.92333 60.3835 6.6637 60.3835C7.15029 60.3835 7.59191 60.2996 7.98855 60.1318C8.38519 59.964 8.72104 59.7234 8.99605 59.4088C9.27106 59.0942 9.46671 58.7167 9.58305 58.2765H11.4553C11.3495 58.9893 11.0877 59.6314 10.6699 60.2029C10.2574 60.7686 9.70997 61.2196 9.02774 61.5552C8.3508 61.8849 7.56281 62.0504 6.6637 62.0504ZM14.1921 61.7987V49.7228H16.0009V51.5467H16.1278C16.3499 50.9492 16.7519 50.4644 17.3336 50.0923C17.9154 49.7202 18.5712 49.5341 19.301 49.5341C19.4385 49.5341 19.6104 49.5368 19.8167 49.542C20.023 49.5472 20.1789 49.555 20.2847 49.5655V51.4524C20.2212 51.4367 20.0758 51.4131 19.8484 51.3816C19.6263 51.345 19.3909 51.3266 19.1424 51.3266C18.55 51.3266 18.0212 51.4498 17.5557 51.6961C17.0957 51.9372 16.7307 52.2727 16.461 52.7025C16.1966 53.127 16.0644 53.6118 16.0644 54.1569V61.7987H14.1921ZM27.242 62.0504C26.0679 62.0504 25.0551 61.7934 24.2037 61.2796C23.3575 60.7611 22.7043 60.0375 22.2442 59.1099C21.7894 58.177 21.562 57.092 21.562 55.8551C21.562 54.6181 21.7894 53.528 22.2442 52.5846C22.7043 51.6358 23.3442 50.8969 24.164 50.3675C24.989 49.8328 25.9515 49.5655 27.0516 49.5655C27.6862 49.5655 28.3129 49.6704 28.9317 49.88C29.5505 50.0897 30.1137 50.4304 30.6215 50.9021C31.1292 51.3685 31.5337 51.987 31.8352 52.7575C32.1367 53.528 32.2874 54.4766 32.2874 55.6035V56.3897H22.8947V54.7859H30.3834C30.3834 54.1045 30.2459 53.4965 29.9709 52.9619C29.7012 52.4273 29.3151 52.0054 28.8127 51.6961C28.3156 51.3869 27.7285 51.2323 27.0516 51.2323C26.3059 51.2323 25.6607 51.4157 25.1159 51.7826C24.5765 52.1443 24.1613 52.616 23.8704 53.1977C23.5796 53.7795 23.4341 54.4032 23.4341 55.0689V56.1381C23.4341 57.0501 23.5928 57.8232 23.9101 58.4574C24.2327 59.0861 24.6796 59.5661 25.2508 59.8959C25.822 60.221 26.4857 60.3835 27.242 60.3835C27.7338 60.3835 28.1781 60.3154 28.5747 60.179C28.9766 60.0375 29.3231 59.8277 29.614 59.5504C29.9048 59.2672 30.1296 58.9159 30.2883 58.4965L32.097 58.9998C31.9066 59.6081 31.5866 60.1423 31.1371 60.6038C30.6875 61.0599 30.1322 61.4159 29.4712 61.6728C28.8101 61.9245 28.067 62.0504 27.242 62.0504ZM38.7211 62.0818C37.9489 62.0818 37.2482 61.9373 36.6188 61.6495C35.9894 61.3559 35.4897 60.9341 35.1194 60.3835C34.7493 59.8277 34.5641 59.1571 34.5641 58.3706C34.5641 57.6791 34.7016 57.1182 34.9767 56.6884C35.2517 56.2534 35.6193 55.9128 36.0794 55.6664C36.5395 55.4201 37.0472 55.2366 37.6025 55.116C38.1631 54.9903 38.7264 54.8907 39.2923 54.8173C40.0326 54.723 40.6329 54.6522 41.0931 54.605C41.5584 54.5526 41.8969 54.4661 42.1084 54.3456C42.3253 54.2251 42.4337 54.0154 42.4337 53.7166V53.6538C42.4337 52.878 42.2196 52.2753 41.7912 51.8455C41.3681 51.4157 40.7255 51.2009 39.8634 51.2009C38.9696 51.2009 38.2689 51.3947 37.7612 51.7826C37.2534 52.1705 36.8965 52.5846 36.6902 53.0248L34.9132 52.3958C35.2306 51.6621 35.6537 51.0907 36.1825 50.6819C36.7167 50.2679 37.2984 49.9796 37.9277 49.8172C38.5624 49.6494 39.1865 49.5655 39.8 49.5655C40.1913 49.5655 40.6409 49.6127 41.1486 49.707C41.6616 49.7962 42.1561 49.9822 42.6321 50.2652C43.1133 50.5483 43.5126 50.9754 43.8299 51.5467C44.1473 52.1181 44.3059 52.8833 44.3059 53.8425V61.7987H42.4337V60.1633H42.3385C42.2116 60.4255 42 60.7057 41.7039 61.0046C41.4077 61.3035 41.0137 61.5575 40.5219 61.7672C40.03 61.977 39.4298 62.0818 38.7211 62.0818ZM39.0067 60.415C39.7471 60.415 40.3712 60.2711 40.8788 59.9827C41.3919 59.6943 41.7779 59.322 42.0371 58.8664C42.3015 58.4102 42.4337 57.9306 42.4337 57.4275V55.7293C42.3544 55.8236 42.1799 55.9101 41.9102 55.9887C41.6457 56.0621 41.339 56.1276 40.9899 56.1853C40.6462 56.2377 40.3103 56.2849 39.9824 56.3268C39.6598 56.3635 39.398 56.3949 39.197 56.4211C38.7105 56.484 38.2557 56.5863 37.8326 56.7278C37.4148 56.864 37.0763 57.071 36.8171 57.3488C36.5633 57.6214 36.4364 57.9935 36.4364 58.465C36.4364 59.1099 36.677 59.5976 37.1583 59.9273C37.6448 60.2524 38.261 60.415 39.0067 60.415ZM53.0223 49.7228V51.2952H46.7077V49.7228H53.0223ZM48.5481 46.8296H50.4203V58.3392C50.4203 58.8635 50.497 59.2568 50.6503 59.5189C50.809 59.7753 51.01 59.9483 51.2533 60.0375C51.5018 60.1214 51.7637 60.1633 52.0387 60.1633C52.2449 60.1633 52.4141 60.1528 52.5464 60.1318C52.6786 60.1056 52.7843 60.0846 52.8637 60.0689L53.2445 61.7358C53.1175 61.783 52.9403 61.8301 52.713 61.8773C52.4855 61.9298 52.1973 61.956 51.8483 61.956C51.3194 61.956 50.8011 61.843 50.2934 61.6181C49.791 61.3926 49.3732 61.0494 49.04 60.588C48.712 60.1266 48.5481 59.5452 48.5481 58.8425V46.8296ZM55.8385 61.7987V49.7228H57.7108V61.7987H55.8385ZM56.7905 47.7102C56.4256 47.7102 56.1109 47.587 55.8465 47.3406C55.5873 47.0943 55.4578 46.7981 55.4578 46.4522C55.4578 46.1063 55.5873 45.8102 55.8465 45.5638C56.1109 45.3175 56.4256 45.1943 56.7905 45.1943C57.1554 45.1943 57.4675 45.3175 57.7266 45.5638C57.9911 45.8102 58.1233 46.1063 58.1233 46.4522C58.1233 46.7981 57.9911 47.0943 57.7266 47.3406C57.4675 47.587 57.1554 47.7102 56.7905 47.7102ZM71.1039 49.7228L66.5978 61.7987H64.6937L60.1876 49.7228H62.2187L65.5826 59.3459H65.709L69.0728 49.7228H71.1039ZM78.2472 62.0504C77.0732 62.0504 76.0603 61.7934 75.2091 61.2796C74.3625 60.7611 73.7094 60.0375 73.2497 59.1099C72.7947 58.177 72.5672 57.092 72.5672 55.8551C72.5672 54.6181 72.7947 53.528 73.2497 52.5846C73.7094 51.6358 74.3496 50.8969 75.1691 50.3675C75.9945 49.8328 76.9568 49.5655 78.0568 49.5655C78.6917 49.5655 79.3184 49.6704 79.9368 49.88C80.5558 50.0897 81.119 50.4304 81.627 50.9021C82.1343 51.3685 82.5393 51.987 82.8403 52.7575C83.1419 53.528 83.293 54.4766 83.293 55.6035V56.3897H73.8999V54.7859H81.3889C81.3889 54.1045 81.2513 53.4965 80.9762 52.9619C80.7063 52.4273 80.3207 52.0054 79.818 51.6961C79.3207 51.3869 78.734 51.2323 78.0568 51.2323C77.3113 51.2323 76.6658 51.4157 76.1215 51.7826C75.5818 52.1443 75.1668 52.616 74.8758 53.1977C74.5848 53.7795 74.4396 54.4032 74.4396 55.0689V56.1381C74.4396 57.0501 74.5983 57.8232 74.9157 58.4574C75.2379 59.0861 75.6853 59.5661 76.2561 59.8959C76.8275 60.221 77.4912 60.3835 78.2472 60.3835C78.7393 60.3835 79.1837 60.3154 79.58 60.179C79.9821 60.0375 80.3283 59.8277 80.6193 59.5504C80.9103 59.2672 81.1349 58.9159 81.2936 58.4965L83.1025 58.9998C82.9121 59.6081 82.5923 60.1423 82.1425 60.6038C81.6928 61.0599 81.1378 61.4159 80.4765 61.6728C79.8157 61.9245 79.0726 62.0504 78.2472 62.0504Z" fill="white"/>
</g>
</svg>
