<svg width="11" height="14" viewBox="0 0 11 14" fill="none" xmlns="http://www.w3.org/2000/svg">
<path id="Vector" d="M1.60004 0.400411L2.70689 0.0666964C3.07219 -0.0432657 3.46502 -0.0165856 3.8121 0.14176C4.15917 0.300105 4.4368 0.579302 4.59318 0.927268L5.36918 2.65298C5.50386 2.95237 5.5414 3.28641 5.47653 3.60822C5.41165 3.93004 5.24762 4.22345 5.00746 4.44727L3.82632 5.54784C3.66804 5.69812 3.78804 6.28384 4.36632 7.28612C4.94518 8.28898 5.39261 8.68555 5.59889 8.62384L7.14632 8.1507C7.45999 8.05476 7.79581 8.05937 8.10672 8.16389C8.41763 8.26842 8.68803 8.46761 8.88004 8.73355L9.98289 10.2621C10.2057 10.5708 10.3088 10.9498 10.2732 11.3288C10.2375 11.7078 10.0656 12.061 9.78918 12.3227L8.93661 13.1301C8.66138 13.3908 8.32194 13.5737 7.95292 13.6604C7.5839 13.747 7.1985 13.7342 6.83604 13.6233C5.04975 13.0764 3.39546 11.4536 1.85089 8.77755C0.302894 6.09755 -0.281677 3.83698 0.125751 1.99012C0.207925 1.61798 0.387859 1.27449 0.647006 0.995055C0.906152 0.715619 1.23513 0.510351 1.60004 0.400411Z" fill="#F0E714"/>
</svg>
