<svg width="28" height="27" viewBox="0 0 28 27" fill="none" xmlns="http://www.w3.org/2000/svg">
<g id="Group 1095">
<rect id="Rectangle 718" x="0.830994" y="0.0422363" width="26.9155" height="26.9155" rx="13.4577" fill="#F0E714"/>
<path id="Vector" d="M7.73334 17.888C9.25399 18.0087 10.6577 17.6466 11.8859 16.6811C10.5992 16.5604 9.72188 15.8966 9.25399 14.6294C9.6634 14.6898 10.0728 14.6898 10.5407 14.5691C9.83884 14.388 9.31247 14.026 8.90307 13.5432C8.49366 13.0001 8.25971 12.3967 8.25971 11.6725C8.66912 11.8536 9.07853 12.0346 9.54642 12.0346C8.90307 11.5519 8.55215 11.0088 8.37669 10.2846C8.20123 9.5605 8.31821 8.83637 8.66912 8.17259C10.1898 10.0433 12.1198 11.0691 14.5178 11.2501C14.5178 10.9484 14.4593 10.707 14.5178 10.4053C14.5763 9.19844 15.4536 8.0519 16.5648 7.75018C17.6176 7.44846 18.5533 7.75018 19.3137 8.47431C19.3721 8.53465 19.4306 8.53465 19.4891 8.53465C20.074 8.41396 20.6004 8.17259 21.1852 7.87087C20.9513 8.53465 20.5419 9.07775 20.0155 9.43982C20.0155 9.43982 20.0155 9.43982 20.0155 9.50016C20.2494 9.43982 20.5419 9.37947 20.7758 9.31913C21.0098 9.25878 21.3022 9.13809 21.5362 9.07775C21.1852 9.5605 20.8343 10.0433 20.3664 10.4053C20.191 10.526 20.1325 10.6467 20.1325 10.8881C20.1325 12.2156 19.84 13.4225 19.3137 14.6294C18.6118 16.0777 17.676 17.2846 16.3309 18.1294C15.3951 18.7328 14.3423 19.0949 13.2311 19.2759C12.4707 19.3966 11.7104 19.3966 10.9501 19.2759C9.78036 18.9138 8.72761 18.5518 7.73334 17.888Z" fill="#101C26"/>
</g>
</svg>
